<svg xmlns="http://www.w3.org/2000/svg" xmlns:xlink="http://www.w3.org/1999/xlink" width="1080" zoomAndPan="magnify" viewBox="0 0 810 809.999993" height="1080" preserveAspectRatio="xMidYMid meet" version="1.0"><defs><g/><clipPath id="2ccbe676a1"><path d="M 405 0 C 181.324219 0 0 181.324219 0 405 C 0 628.675781 181.324219 810 405 810 C 628.675781 810 810 628.675781 810 405 C 810 181.324219 628.675781 0 405 0 Z M 405 0 " clip-rule="nonzero"/></clipPath></defs><g clip-path="url(#2ccbe676a1)"><rect x="-81" width="972" fill="#e00074" y="-80.999999" height="971.999992" fill-opacity="1"/></g><g fill="#c1ff72" fill-opacity="1"><g transform="translate(331.840975, 210.76604)"><g><path d="M 1.746094 -32.417969 C 3.820312 -12.601562 23.125 -1.136719 47.390625 -3.671875 C 73.429688 -6.398438 91.429688 -25.875 88.769531 -51.28125 C 83.613281 -100.570312 9.996094 -87.347656 6.742188 -118.46875 C 6.488281 -120.882812 7.355469 -123.671875 8.417969 -124.554688 C 29.757812 -126.785156 54.402344 -126.921875 76.941406 -106.679688 L 77.320312 -106.71875 L 74.238281 -136.191406 L 4.367188 -128.882812 C 1.304688 -126.25 -0.898438 -121.523438 -0.351562 -116.316406 C 3.421875 -80.238281 66.761719 -81.210938 71.105469 -39.671875 C 72.78125 -23.667969 64.796875 -10.375 46.757812 -8.488281 C 29.609375 -6.691406 20.597656 -17.949219 19.546875 -27.988281 C 18.417969 -38.785156 23.945312 -49.765625 35.632812 -50.988281 C 37.410156 -51.171875 39.21875 -51.105469 41.304688 -50.808594 C 41.671875 -53.417969 38 -63.949219 23.011719 -62.382812 C 13.355469 -61.371094 -0.367188 -52.617188 1.746094 -32.417969 Z M 1.746094 -32.417969 "/></g></g></g><g fill="#c1ff72" fill-opacity="1"><g transform="translate(415.681059, 200.4243)"><g><path d="M 14.5625 -31.8125 C 8.433594 -10.71875 16.9375 6.25 34.601562 11.382812 C 53.734375 16.941406 83.230469 4.230469 92.03125 -26.066406 C 98.804688 -49.371094 89.535156 -64.167969 71.996094 -69.261719 C 52.738281 -74.859375 24.042969 -64.441406 14.5625 -31.8125 Z M 32.890625 -26.222656 C 41.191406 -54.804688 54.679688 -69.640625 68.171875 -65.71875 C 77.25 -63.082031 79.53125 -51.246094 73.507812 -30.519531 C 64.882812 -0.835938 52.039062 11.792969 38.546875 7.875 C 29.46875 5.234375 27.546875 -7.824219 32.890625 -26.222656 Z M 32.890625 -26.222656 "/></g></g></g><g fill="#c1ff72" fill-opacity="1"><g transform="translate(488.240284, 223.583396)"><g><path d="M 3.296875 1.953125 L 26.261719 15.5625 L 26.457031 15.234375 C 25.265625 1.460938 30.863281 -12.742188 39 -26.476562 C 47.140625 -40.210938 56.914062 -51.9375 69.566406 -57.503906 L 69.761719 -57.835938 L 46.796875 -71.445312 L 46.601562 -71.117188 C 47.792969 -57.34375 42.195312 -43.140625 34.058594 -29.40625 C 25.917969 -15.671875 16.144531 -3.941406 3.492188 1.625 Z M 61.894531 -70.367188 C 68.820312 -66.265625 77.851562 -68.480469 82.019531 -75.511719 C 86.125 -82.4375 83.796875 -91.535156 76.875 -95.636719 C 69.839844 -99.804688 60.742188 -97.480469 56.640625 -90.554688 C 52.472656 -83.523438 54.863281 -74.535156 61.894531 -70.367188 Z M 61.894531 -70.367188 "/></g></g></g><g fill="#c1ff72" fill-opacity="1"><g transform="translate(512.142479, 234.415017)"><g><path d="M 22.261719 20.890625 L 22.523438 20.609375 C 24.347656 6.90625 32.890625 -5.746094 43.816406 -17.386719 L 46.960938 -20.742188 C 55.527344 -29.867188 70.410156 -27.8125 81.03125 -17.847656 C 86.992188 -12.253906 90.410156 -4.140625 88.265625 2.253906 L 88.542969 2.515625 L 106.722656 -16.859375 C 104.542969 -20.132812 102.570312 -22.507812 99.402344 -25.480469 C 87.757812 -36.40625 70.371094 -37.660156 56.050781 -30.425781 L 73.09375 -48.589844 L 61.175781 -59.597656 L 60.914062 -59.316406 C 59.09375 -45.613281 50.546875 -32.964844 39.625 -21.320312 C 28.699219 -9.679688 16.617188 -0.347656 3.054688 2.34375 L 2.792969 2.621094 Z M 22.261719 20.890625 "/></g></g></g><g fill="#c1ff72" fill-opacity="1"><g transform="translate(556.432412, 272.933785)"><g><path d="M 20.820312 39.726562 C 25.128906 47.414062 32.398438 55.929688 40.007812 57.226562 L 55.160156 48.726562 L 54.972656 48.394531 C 42.878906 49.027344 30.460938 46.472656 24.335938 35.554688 C 18.339844 24.859375 26.492188 13.550781 39.160156 4.542969 C 39.089844 9.121094 39.96875 14.339844 43.34375 20.355469 C 54.089844 39.515625 72.6875 42.117188 92.070312 31.246094 C 103.097656 25.058594 107.40625 17.078125 104.21875 11.394531 L 93.472656 -7.765625 C 83.539062 -25.476562 56.683594 -27.402344 37.410156 -16.589844 C 18.585938 -6.03125 7.320312 15.664062 20.820312 39.726562 Z M 44.097656 1.332031 C 45.210938 0.707031 46.324219 0.0820312 47.4375 -0.542969 C 64.148438 -9.914062 86.03125 -10.328125 94.402344 4.601562 C 97.714844 10.503906 101.882812 16.367188 95.535156 19.929688 C 79.9375 28.675781 54.140625 21.328125 46.703125 8.070312 C 45.328125 5.621094 44.476562 3.316406 44.097656 1.332031 Z M 44.097656 1.332031 "/></g></g></g><g fill="#c1ff72" fill-opacity="1"><g transform="translate(589.821099, 327.545143)"><g><path d="M 38.878906 29.695312 C 37.613281 44.605469 39.480469 57.511719 28.679688 59.507812 C 20.265625 61.066406 13.308594 50.144531 11.75 41.730469 C 10.148438 33.0625 16.753906 12.617188 33.929688 -0.566406 L 33.859375 -0.941406 L 9.117188 3.636719 C 3.566406 18.566406 3.71875 27.109375 6.253906 40.800781 C 10.066406 61.398438 23.054688 72.632812 38.378906 69.792969 C 56.085938 66.515625 56.40625 51.390625 58.691406 33.5625 C 60.519531 19.582031 61.289062 2.683594 72.96875 0.523438 C 77.867188 -0.382812 83.085938 2.546875 83.804688 6.441406 C 86.621094 21.636719 84.886719 44.558594 66 58.316406 L 66.09375 58.820312 L 96.613281 53.171875 L 87.640625 4.691406 C 86.175781 -3.222656 74.945312 -9.847656 63.496094 -7.855469 C 52.292969 -5.914062 41.074219 4.347656 38.878906 29.695312 Z M 38.878906 29.695312 "/></g></g></g><g fill="#c1ff72" fill-opacity="1"><g transform="translate(601.154809, 397.755847)"><g><path d="M -0.222656 3.824219 L -1.761719 30.476562 L -1.378906 30.496094 C 10.304688 23.113281 25.492188 21.5625 41.433594 22.480469 C 57.371094 23.402344 72.277344 26.695312 83.035156 35.378906 L 83.417969 35.402344 L 84.957031 8.75 L 84.574219 8.726562 C 72.890625 16.113281 57.703125 17.664062 41.765625 16.742188 C 25.824219 15.824219 10.917969 12.53125 0.160156 3.847656 Z M 90.933594 22.65625 C 90.46875 30.691406 96.589844 37.699219 104.75 38.167969 C 112.785156 38.632812 119.800781 32.386719 120.261719 24.351562 C 120.734375 16.191406 114.488281 9.179688 106.453125 8.714844 C 98.292969 8.242188 91.40625 14.496094 90.933594 22.65625 Z M 90.933594 22.65625 "/></g></g></g><g fill="#c1ff72" fill-opacity="1"><g transform="translate(600.496927, 425.635659)"><g/></g></g><g fill="#c1ff72" fill-opacity="1"><g transform="translate(594.211391, 461.418491)"><g><path d="M 32.28125 24.34375 L 25.171875 39.34375 L 37.234375 50.859375 L 20.6875 48.8125 L 13.578125 63.8125 L 10.59375 47.4375 L -6.03125 45.21875 L 8.609375 37.296875 L 5.46875 20.984375 L 17.71875 32.421875 Z M 32.28125 24.34375 "/></g></g></g><g fill="#c1ff72" fill-opacity="1"><g transform="translate(573.695615, 507.563286)"><g><path d="M 25.1875 31.609375 L 14.5625 44.375 L 23.40625 58.53125 L 7.875 52.421875 L -2.765625 65.1875 L -1.5625 48.578125 L -17.09375 42.28125 L -0.9375 38.265625 L 0.078125 21.671875 L 9.078125 35.8125 Z M 25.1875 31.609375 "/></g></g></g><g fill="#c1ff72" fill-opacity="1"><g transform="translate(542.3323, 547.143431)"><g><path d="M 16.53125 36.890625 L 3.0625 46.609375 L 8.078125 62.53125 L -5.4375 52.71875 L -18.90625 62.4375 L -13.609375 46.671875 L -27.09375 36.703125 L -10.4375 36.84375 L -5.328125 21.015625 L -0.125 36.953125 Z M 16.53125 36.890625 "/></g></g></g><g fill="#c1ff72" fill-opacity="1"><g transform="translate(500.579611, 577.36918)"><g/></g></g><g fill="#c1ff72" fill-opacity="1"><g transform="translate(471.591305, 596.014314)"><g><path d="M -1.714844 32.417969 C -3.804688 12.605469 -23.125 1.15625 -47.386719 3.71875 C -73.425781 6.46875 -91.402344 25.964844 -88.71875 51.371094 C -83.515625 100.652344 -9.910156 87.355469 -6.625 118.476562 C -6.367188 120.890625 -7.230469 123.679688 -8.292969 124.5625 C -29.632812 126.816406 -54.277344 126.976562 -76.832031 106.753906 L -77.214844 106.796875 L -74.101562 136.265625 L -4.238281 128.886719 C -1.179688 126.25 1.019531 121.523438 0.46875 116.316406 C -3.339844 80.242188 -66.679688 81.28125 -71.066406 39.742188 C -72.757812 23.738281 -64.785156 10.4375 -46.75 8.535156 C -29.601562 6.722656 -20.578125 17.972656 -19.519531 28.007812 C -18.378906 38.800781 -23.898438 49.789062 -35.582031 51.023438 C -37.359375 51.210938 -39.164062 51.144531 -41.253906 50.851562 C -41.617188 53.457031 -37.9375 63.988281 -22.949219 62.402344 C -13.296875 61.382812 0.417969 52.613281 -1.714844 32.417969 Z M -1.714844 32.417969 "/></g></g></g><g fill="#c1ff72" fill-opacity="1"><g transform="translate(387.728911, 606.450339)"><g><path d="M -14.53125 31.828125 C -8.421875 10.726562 -16.945312 -6.234375 -34.613281 -11.347656 C -53.75 -16.886719 -83.234375 -4.144531 -92.007812 26.160156 C -98.753906 49.46875 -89.472656 64.257812 -71.925781 69.335938 C -52.664062 74.910156 -23.976562 64.464844 -14.53125 31.828125 Z M -32.863281 26.257812 C -41.136719 54.84375 -54.609375 69.691406 -68.105469 65.785156 C -77.1875 63.160156 -79.480469 51.328125 -73.476562 30.589844 C -64.882812 0.898438 -52.050781 -11.742188 -38.554688 -7.835938 C -29.476562 -5.207031 -27.539062 7.851562 -32.863281 26.257812 Z M -32.863281 26.257812 "/></g></g></g><g fill="#c1ff72" fill-opacity="1"><g transform="translate(315.182598, 583.352145)"><g><path d="M -3.296875 -1.949219 L -26.277344 -15.539062 L -26.472656 -15.207031 C -25.265625 -1.4375 -30.847656 12.773438 -38.976562 26.515625 C -47.101562 40.257812 -56.863281 51.996094 -69.507812 57.574219 L -69.703125 57.90625 L -46.726562 71.492188 L -46.53125 71.164062 C -47.738281 57.390625 -42.152344 43.183594 -34.027344 29.441406 C -25.902344 15.695312 -16.140625 3.957031 -3.492188 -1.621094 Z M -61.824219 70.429688 C -68.753906 66.332031 -77.785156 68.558594 -81.945312 75.59375 C -86.042969 82.523438 -83.703125 91.621094 -76.777344 95.714844 C -69.742188 99.875 -60.644531 97.539062 -56.546875 90.613281 C -52.386719 83.578125 -54.789062 74.589844 -61.824219 70.429688 Z M -61.824219 70.429688 "/></g></g></g><g fill="#c1ff72" fill-opacity="1"><g transform="translate(291.267791, 572.544991)"><g><path d="M -22.28125 -20.867188 L -22.542969 -20.585938 C -24.351562 -6.882812 -32.882812 5.777344 -43.796875 17.429688 L -46.941406 20.789062 C -55.496094 29.925781 -70.382812 27.882812 -81.011719 17.929688 C -86.976562 12.339844 -90.40625 4.230469 -88.265625 -2.164062 L -88.546875 -2.425781 L -106.707031 16.964844 C -104.519531 20.234375 -102.546875 22.613281 -99.375 25.578125 C -87.722656 36.492188 -70.332031 37.730469 -56.019531 30.484375 L -73.046875 48.664062 L -61.117188 59.65625 L -60.855469 59.378906 C -59.046875 45.671875 -50.515625 33.015625 -39.601562 21.359375 C -28.6875 9.707031 -16.617188 0.363281 -3.058594 -2.339844 L -2.796875 -2.621094 Z M -22.28125 -20.867188 "/></g></g></g><g fill="#c1ff72" fill-opacity="1"><g transform="translate(246.912806, 534.079092)"><g><path d="M -20.859375 -39.703125 C -25.179688 -47.386719 -32.453125 -55.898438 -40.066406 -57.1875 L -55.207031 -48.671875 L -55.019531 -48.339844 C -42.925781 -48.984375 -30.507812 -46.441406 -24.375 -35.53125 C -18.363281 -24.84375 -26.507812 -13.523438 -39.164062 -4.503906 C -39.101562 -9.082031 -39.984375 -14.300781 -43.363281 -20.3125 C -54.128906 -39.460938 -72.726562 -42.046875 -92.101562 -31.152344 C -103.121094 -24.957031 -107.425781 -16.96875 -104.230469 -11.292969 L -93.464844 7.859375 C -83.511719 25.5625 -56.65625 27.457031 -37.394531 16.628906 C -18.578125 6.050781 -7.335938 -15.65625 -20.859375 -39.703125 Z M -44.097656 -1.289062 C -45.210938 -0.664062 -46.324219 -0.0351562 -47.4375 0.589844 C -64.136719 9.980469 -86.019531 10.414062 -94.410156 -4.503906 C -97.726562 -10.40625 -101.898438 -16.265625 -95.554688 -19.832031 C -79.964844 -28.597656 -54.160156 -21.273438 -46.710938 -8.023438 C -45.335938 -5.574219 -44.480469 -3.273438 -44.097656 -1.289062 Z M -44.097656 -1.289062 "/></g></g></g><g fill="#c1ff72" fill-opacity="1"><g transform="translate(213.485291, 479.49603)"><g><path d="M -38.910156 -29.65625 C -37.65625 -44.570312 -39.539062 -57.472656 -28.742188 -59.480469 C -20.328125 -61.046875 -13.359375 -50.132812 -11.792969 -41.71875 C -10.179688 -33.054688 -16.765625 -12.601562 -33.929688 0.597656 L -33.859375 0.976562 L -9.121094 -3.628906 C -3.585938 -18.5625 -3.746094 -27.105469 -6.292969 -40.792969 C -10.125 -61.386719 -23.128906 -72.609375 -38.449219 -69.757812 C -56.152344 -66.460938 -56.457031 -51.332031 -58.722656 -33.503906 C -60.539062 -19.523438 -61.292969 -2.621094 -72.96875 -0.449219 C -77.867188 0.460938 -83.089844 -2.464844 -83.8125 -6.355469 C -86.640625 -21.550781 -84.929688 -44.472656 -66.058594 -58.25 L -66.152344 -58.753906 L -96.667969 -53.074219 L -87.644531 -4.605469 C -86.171875 3.308594 -74.9375 9.921875 -63.488281 7.917969 C -52.289062 5.964844 -41.078125 -4.308594 -38.910156 -29.65625 Z M -38.910156 -29.65625 "/></g></g></g><g fill="#c1ff72" fill-opacity="1"><g transform="translate(202.094133, 409.292548)"><g><path d="M 0.21875 -3.824219 L 1.730469 -30.476562 L 1.347656 -30.5 C -10.328125 -23.101562 -25.515625 -21.535156 -41.453125 -22.441406 C -57.394531 -23.347656 -72.304688 -26.625 -83.070312 -35.296875 L -83.453125 -35.316406 L -84.96875 -8.664062 L -84.585938 -8.644531 C -72.90625 -16.039062 -57.722656 -17.609375 -41.78125 -16.703125 C -25.839844 -15.796875 -10.929688 -12.519531 -0.164062 -3.847656 Z M -90.957031 -22.566406 C -90.5 -30.601562 -96.628906 -37.601562 -104.789062 -38.066406 C -112.824219 -38.519531 -119.832031 -32.265625 -120.289062 -24.234375 C -120.75 -16.070312 -114.496094 -9.0625 -106.464844 -8.605469 C -98.300781 -8.144531 -91.421875 -14.40625 -90.957031 -22.566406 Z M -90.957031 -22.566406 "/></g></g></g><g fill="#c1ff72" fill-opacity="1"><g transform="translate(202.692668, 381.42228)"><g/></g></g><g fill="#c1ff72" fill-opacity="1"><g transform="translate(208.967861, 345.624997)"><g><path d="M -32.296875 -24.3125 L -25.203125 -39.328125 L -37.296875 -50.828125 L -20.734375 -48.796875 L -13.640625 -63.8125 L -10.640625 -47.4375 L 5.96875 -45.21875 L -8.65625 -37.296875 L -5.5 -20.96875 L -17.734375 -32.421875 Z M -32.296875 -24.3125 "/></g></g></g><g fill="#c1ff72" fill-opacity="1"><g transform="translate(229.437552, 299.459714)"><g><path d="M -25.234375 -31.578125 L -14.609375 -44.359375 L -23.453125 -58.5 L -7.921875 -52.40625 L 2.6875 -65.1875 L 1.515625 -48.59375 L 17.0625 -42.296875 L 0.90625 -38.265625 L -0.09375 -21.671875 L -9.109375 -35.8125 Z M -25.234375 -31.578125 "/></g></g></g><g fill="#c1ff72" fill-opacity="1"><g transform="translate(260.761308, 259.848285)"><g><path d="M -16.5625 -36.875 L -3.109375 -46.609375 L -8.140625 -62.515625 L 5.390625 -52.734375 L 18.84375 -62.46875 L 13.5625 -46.6875 L 27.046875 -36.71875 L 10.40625 -36.84375 L 5.3125 -21.015625 L 0.109375 -36.953125 Z M -16.5625 -36.875 "/></g></g></g><g fill="#c1ff72" fill-opacity="1"><g transform="translate(302.458405, 229.588994)"><g/></g></g></svg>