<?xml version="1.0" encoding="UTF-8"?><svg id="Layer_2" xmlns="http://www.w3.org/2000/svg" viewBox="0 0 360.24 370.4"><defs><style>.cls-1{fill:#c1ff72;}</style></defs><g id="Layer_1-2"><path class="cls-1" d="M141.81,58.44c1.17,11.16,12.04,17.62,25.71,16.19,14.67-1.54,24.8-12.5,23.3-26.81-2.9-27.76-44.36-20.31-46.19-37.84-.14-1.36,.35-2.93,.94-3.42,12.02-1.26,25.9-1.34,38.59,10.06l.22-.02-1.74-16.6-39.35,4.12c-1.73,1.48-2.97,4.14-2.66,7.07,2.13,20.32,37.8,19.77,40.25,43.17,.94,9.01-3.56,16.5-13.72,17.56-9.65,1.01-14.73-5.33-15.33-10.98-.64-6.08,2.48-12.27,9.07-12.95,1-.1,2.01-.07,3.19,.1,.21-1.47-1.86-7.4-10.3-6.52-5.44,.57-13.17,5.5-11.98,16.88Z"/><path class="cls-1" d="M196.24,52.96c-3.45,11.88,1.34,21.44,11.29,24.33,10.78,3.13,27.39-4.03,32.35-21.09,3.81-13.12-1.41-21.46-11.29-24.33-10.84-3.15-27.01,2.72-32.35,21.09Zm10.33,3.15c4.67-16.1,12.27-24.45,19.86-22.24,5.12,1.49,6.4,8.15,3.01,19.83-4.86,16.72-12.09,23.83-19.69,21.62-5.11-1.48-6.19-8.84-3.18-19.2Z"/><path class="cls-1" d="M230.77,85.02l12.93,7.67,.11-.19c-.67-7.76,2.48-15.76,7.06-23.49,4.59-7.74,10.09-14.34,17.22-17.48l.11-.19-12.94-7.67-.11,.19c.68,7.76-2.48,15.76-7.06,23.49-4.59,7.74-10.09,14.34-17.22,17.48l-.1,.19Zm33-40.73c3.9,2.31,8.99,1.06,11.34-2.9,2.31-3.9,1-9.03-2.9-11.34-3.97-2.35-9.09-1.04-11.4,2.86-2.35,3.97-1,9.03,2.96,11.38Z"/><path class="cls-1" d="M254.91,101.78l.15-.15c1.02-7.71,5.84-14.84,11.99-21.4l1.78-1.89c4.82-5.14,13.2-3.98,19.19,1.63,3.35,3.15,5.28,7.71,4.07,11.32l.16,.14,10.23-10.91c-1.22-1.84-2.34-3.19-4.12-4.86-6.56-6.15-16.35-6.85-24.42-2.78l9.6-10.23-6.71-6.19-.15,.15c-1.02,7.72-5.83,14.84-11.99,21.4-6.15,6.56-12.96,11.82-20.59,13.33l-.14,.16,10.96,10.28Z"/><path class="cls-1" d="M279.04,134.08c2.43,4.33,6.52,9.12,10.81,9.85l8.53-4.79-.1-.19c-6.81,.35-13.8-1.09-17.25-7.23-3.38-6.03,1.21-12.39,8.34-17.47-.03,2.57,.46,5.52,2.36,8.91,6.06,10.79,16.52,12.26,27.44,6.13,6.22-3.48,8.64-7.98,6.85-11.17l-6.05-10.8c-5.6-9.98-20.72-11.05-31.58-4.97-10.6,5.95-16.94,18.17-9.35,31.72Zm13.11-21.62c.63-.35,1.25-.7,1.88-1.05,9.41-5.28,21.74-5.51,26.45,2.9,1.87,3.32,4.22,6.63,.64,8.63-8.78,4.93-23.31,.79-27.5-6.68-.78-1.38-1.25-2.68-1.47-3.8Z"/><path class="cls-1" d="M308.02,159.19c-.72,8.4,.34,15.66-5.74,16.79-4.74,.88-8.66-5.28-9.53-10.02-.91-4.88,2.82-16.4,12.49-23.82l-.04-.21-13.93,2.58c-3.12,8.41-3.04,13.22-1.61,20.92,2.15,11.6,9.46,17.93,18.09,16.33,9.97-1.84,10.15-10.36,11.44-20.41,1.03-7.87,1.46-17.38,8.04-18.6,2.76-.51,5.7,1.13,6.11,3.33,1.58,8.56,.61,21.46-10.03,29.22l.06,.28,17.19-3.19-5.06-27.3c-.82-4.46-7.14-8.18-13.6-7.06-6.31,1.09-12.63,6.87-13.86,21.15Z"/><path class="cls-1" d="M292.38,184.16l-.87,15.01h.21c6.59-4.15,15.14-5.03,24.12-4.51,8.97,.51,17.37,2.37,23.43,7.26h.22s.87-15,.87-15l-.22-.02c-6.58,4.16-15.13,5.04-24.11,4.51-8.98-.51-17.38-2.37-23.43-7.26h-.21Zm51.33,10.59c-.26,4.53,3.19,8.47,7.78,8.74,4.53,.27,8.48-3.26,8.74-7.78,.27-4.59-3.25-8.54-7.78-8.81-4.59-.27-8.47,3.26-8.74,7.85Z"/><path class="cls-1" d="M306.77,231.57l-4.02,8.46,6.82,6.44-9.33-1.09-3.99,8.43-1.67-9.24-9.36-1.25,8.24-4.47-1.8-9.17,6.92,6.44,8.21-4.54Z"/><path class="cls-1" d="M291.26,261.64l-6.02,7.21,4.96,7.95-8.72-3.44-5.95,7.18,.64-9.3-8.72-3.57,9.07-2.28,.58-9.3,5.05,7.95,9.11-2.38Z"/><path class="cls-1" d="M268.67,286.93l-7.59,5.47,2.83,8.95-7.59-5.5-7.59,5.44,2.99-8.88-7.56-5.57,9.33,.03,2.9-8.88,2.93,8.95h9.36Z"/><path class="cls-1" d="M218.57,311.93c-1.17-11.17-12.06-17.61-25.72-16.17-14.67,1.55-24.79,12.53-23.28,26.84,2.93,27.75,44.38,20.27,46.23,37.79,.14,1.36-.34,2.93-.94,3.43-12.01,1.27-25.9,1.36-38.6-10.02l-.21,.02,1.75,16.6,39.35-4.15c1.72-1.49,2.96-4.15,2.65-7.08-2.15-20.32-37.82-19.73-40.29-43.13-.95-9.01,3.54-16.5,13.69-17.58,9.66-1.01,14.74,5.32,15.34,10.97,.64,6.07-2.47,12.27-9.05,12.96-1.01,.1-2.02,.06-3.19-.1-.21,1.46,1.87,7.4,10.31,6.51,5.44-.58,13.16-5.52,11.96-16.89Z"/><path class="cls-1" d="M164.12,317.46c3.44-11.88-1.36-21.43-11.31-24.31-10.78-3.12-27.38,4.05-32.32,21.12-3.8,13.13,1.42,21.46,11.31,24.32,10.84,3.14,27-2.74,32.32-21.13Zm-10.33-3.14c-4.66,16.1-12.24,24.46-19.85,22.27-5.11-1.48-6.4-8.15-3.02-19.82,4.84-16.73,12.07-23.84,19.67-21.64,5.12,1.47,6.2,8.83,3.2,19.19Z"/><path class="cls-1" d="M129.59,285.43l-12.94-7.65-.1,.19c.68,7.76-2.47,15.76-7.05,23.5-4.57,7.74-10.07,14.35-17.19,17.5l-.11,.19,12.94,7.65,.11-.19c-.68-7.76,2.46-15.76,7.04-23.5,4.58-7.74,10.07-14.35,17.19-17.49l.11-.19Zm-32.96,40.76c-3.9-2.3-8.99-1.05-11.34,2.91-2.3,3.9-.99,9.03,2.91,11.34,3.97,2.34,9.09,1.02,11.39-2.88,2.35-3.96,.99-9.02-2.97-11.37Z"/><path class="cls-1" d="M105.43,268.69l-.14,.16c-1.02,7.71-5.82,14.84-11.97,21.41l-1.77,1.89c-4.82,5.15-13.2,4-19.19-1.61-3.36-3.15-5.29-7.71-4.09-11.32l-.16-.14-10.22,10.92c1.23,1.84,2.34,3.18,4.13,4.85,6.56,6.15,16.35,6.84,24.42,2.76l-9.59,10.24,6.72,6.19,.15-.15c1.01-7.72,5.82-14.85,11.97-21.42,6.15-6.56,12.94-11.82,20.58-13.35l.14-.15-10.97-10.28Z"/><path class="cls-1" d="M81.25,236.42c-2.44-4.32-6.53-9.11-10.82-9.84l-8.53,4.79,.1,.19c6.81-.36,13.8,1.07,17.26,7.22,3.38,6.02-1.21,12.39-8.33,17.47,.04-2.58-.46-5.52-2.37-8.91-6.06-10.79-16.53-12.24-27.45-6.11-6.2,3.49-8.62,7.99-6.83,11.19l6.07,10.78c5.61,9.97,20.73,11.04,31.58,4.94,10.59-5.95,16.93-18.18,9.32-31.73Zm-13.09,21.64c-.63,.35-1.25,.7-1.88,1.05-9.4,5.29-21.73,5.53-26.45-2.86-1.87-3.33-4.22-6.63-.64-8.64,8.78-4.93,23.31-.8,27.5,6.65,.77,1.38,1.25,2.68,1.47,3.8Z"/><path class="cls-1" d="M52.26,211.34c.71-8.4-.35-15.66,5.73-16.8,4.74-.88,8.66,5.26,9.54,10,.91,4.88-2.8,16.4-12.46,23.84l.04,.21,13.93-2.59c3.11-8.41,3.02-13.23,1.58-20.93-2.16-11.59-9.48-17.92-18.11-16.31-9.97,1.85-10.14,10.37-11.42,20.42-1.02,7.87-1.45,17.38-8.02,18.62-2.76,.51-5.7-1.13-6.11-3.33-1.59-8.56-.64-21.47,9.99-29.23l-.05-.28-17.18,3.19,5.08,27.3c.83,4.46,7.16,8.18,13.61,7.05,6.31-1.09,12.61-6.89,13.84-21.16Z"/><path class="cls-1" d="M67.88,186.35l.85-15.01h-.22c-6.57,4.16-15.12,5.04-24.1,4.53-8.98-.51-17.38-2.36-23.43-7.24h-.22s-.85,15-.85,15l.22,.02c6.57-4.17,15.12-5.05,24.1-4.54,8.98,.51,17.38,2.36,23.43,7.24h.22Zm-51.35-10.55c.26-4.52-3.19-8.46-7.79-8.73-4.52-.26-8.47,3.27-8.73,7.8-.26,4.59,3.26,8.54,7.79,8.79,4.59,.27,8.47-3.26,8.73-7.86Z"/><path class="cls-1" d="M53.42,138.97l3.99-8.46-6.79-6.5,9.33,1.16,3.99-8.43,1.71,9.17,9.33,1.29-8.24,4.44,1.77,9.2-6.89-6.47-8.21,4.6Z"/><path class="cls-1" d="M68.93,108.85l5.99-7.21-4.96-7.95,8.72,3.41,5.99-7.18-.64,9.36,8.72,3.51-9.07,2.28-.58,9.33-5.05-7.92-9.11,2.35Z"/><path class="cls-1" d="M91.47,83.55l7.59-5.47-2.83-8.91,7.59,5.47,7.56-5.47-2.93,8.88,7.56,5.6-9.36-.03-2.86,8.88-2.93-8.98-9.4,.03Z"/></g></svg>