<?xml version="1.0" encoding="UTF-8"?><svg id="Layer_2" xmlns="http://www.w3.org/2000/svg" viewBox="0 0 226.22 146.72"><defs><style>.cls-1{fill:none;stroke:#0006e9;stroke-miterlimit:10;}</style></defs><g id="Layer_1-2"><g><path class="cls-1" d="M119.36,141.14c-1-2.99-2.84-9.92-.27-17.63,.83-2.48,2.32-5.94,6.02-9.89,7.98-8.53,18.25-12.53,28.98-15.48,12.4-3.41,25.02-6.04,37.5-9.16,10.48-2.62,20.73-5.87,29.78-12.03,5.29-3.6,5.79-7.13,1.28-11.74-2.27-2.32-5.08-4.32-7.98-5.81-11.74-6.02-24.61-7.62-37.47-8.14-10.9-.44-21.86,.62-32.79,.8-9.81,.16-19.63,.03-33.75,.03-16.74,.36-37.76,.32-58.34-5.01-16.21-4.2-31.5-10.01-43.29-22.85C3.06,17.74,.05,8.69,.55,.03"/><path class="cls-1" d="M124.99,139.22c-.64,1.03-3.33,4.95-3.93,5.93-.95,1.55-2.36,1.25-3.32,.11-1.42-1.68-2.32-3.68-3.19-5.68"/></g></g></svg>