<?xml version="1.0" encoding="UTF-8"?><svg id="Layer_2" xmlns="http://www.w3.org/2000/svg" viewBox="0 0 210.74 146.32"><defs><style>.cls-1{fill:none;stroke:#0006e9;stroke-miterlimit:10;}</style></defs><g id="Layer_1-2"><g><path class="cls-1" d="M5.68,141.25c.32-5.45,2.03-10.75,5.27-15.16,5.24-7.12,12.48-11.61,20.74-14.83,16.94-6.6,34.75-8.06,52.54-8.59,17.23-.52,34.51,.97,51.75,.66,13.85-.25,27.73-1.34,41.48-3.05,9.74-1.21,18.97-5,26.68-11.34,6.29-5.17,10.27-11.58-1.18-16.67-11.32-5.03-23.35-5.67-35.32-6.64-9.4-.76-18.9-.33-28.29-1.22-8.4-.8-16.61-2.85-23.26-8.75-3.72-3.3-5.65-6.77-7.25-9.66-5.93-10.68-6.24-20.94-6.32-25.19-.04-2.13-.21-11.07,2.62-20.68"/><path class="cls-1" d="M10.9,138.82c-.64,1.03-3.33,4.95-3.93,5.93-.95,1.55-2.36,1.25-3.32,.11-1.42-1.68-2.32-3.68-3.19-5.68"/></g></g></svg>