<?xml version="1.0" encoding="UTF-8"?><svg id="Layer_2" xmlns="http://www.w3.org/2000/svg" viewBox="0 0 139.38 96.88"><defs><style>.cls-1{fill:none;stroke:#0006e9;stroke-miterlimit:10;}</style></defs><g id="Layer_1-2"><g><path class="cls-1" d="M5.43,93.88c.07-2.64,.58-6.67,3.18-10.2,5.55-7.54,17.05-7.92,31.54-8.4,3.44-.11,9.15,0,20.58,.25,6.96,.15,8.11,.23,11.49,.29,13.28,.24,21.44,.39,29.18-1.04,7.53-1.38,19.71-3.63,28.51-13.89,11.32-13.2,8.89-30.18,8.47-32.79-2.65-16.62-14.35-25.8-16.9-27.71"/><path class="cls-1" d="M.46,89.75c.87,2,1.76,4,3.19,5.68,.96,1.14,2.37,1.44,3.32-.11,.6-.98,3.29-4.9,3.93-5.93"/></g></g></svg>