<?xml version="1.0" encoding="UTF-8"?><svg id="Layer_2" xmlns="http://www.w3.org/2000/svg" viewBox="0 0 209.41 69.48"><defs><style>.cls-1{fill:none;stroke:#0006e9;stroke-miterlimit:10;}</style></defs><g id="Layer_1-2"><g><path class="cls-1" d="M203.66,65.49c.48-6.35-.56-12.81-3.86-18.42-.99-1.68-5.03-8.11-20.74-14.83-11.81-5.05-24.67-7.88-52.54-8.59-11.35-.29-9.9,.16-51.75,.66-2.94,.03-20.11,.17-41.48-3.05-4-.6-16.45-2.62-26.68-11.34C.34,4.58,.35,1.37,.56,.08"/><path class="cls-1" d="M208.99,61.99c-.64,1.03-3.33,4.95-3.93,5.93-.95,1.55-2.36,1.25-3.32,.11-1.42-1.68-2.32-3.68-3.19-5.68"/></g></g></svg>