<?xml version="1.0" encoding="UTF-8"?><svg id="Layer_2" xmlns="http://www.w3.org/2000/svg" viewBox="0 0 224.76 165.15"><defs><style>.cls-1{fill:none;stroke:#0006e9;stroke-miterlimit:10;}</style></defs><g id="Layer_1-2"><g><path class="cls-1" d="M94.7,160.15c1.5-5.1,3.85-10.38,7.5-14.94,1.28-1.6,3.21-3.7,4.65-7.32,3.29-8.25,.78-16.11,.27-17.63-1.04-3.08-2.79-6.33-6.02-9.89-7.56-8.36-17.46-12.04-28.98-15.48-19.38-5.77-37.5-9.16-37.5-9.16,0,0-15.87-2.96-29.78-12.03-1.43-.93-4.08-2.81-4.32-5.57-.21-2.44,1.55-4.47,3.04-6.17,3.39-3.83,7.3-5.52,7.98-5.81,17.86-7.51,37.47-8.14,37.47-8.14,12.19-.39,15.28,.35,32.79,.8,0,0,16.25,.41,33.75,.03,28.17-.61,42.26-.91,58.34-5.01,18.81-4.8,34.14-8.71,43.29-22.84,3.69-5.7,6.5-13.25,7.08-20.96"/><path class="cls-1" d="M100.66,157.65c-.64,1.03-3.33,4.95-3.93,5.93-.95,1.55-2.36,1.25-3.32,.11-1.42-1.68-2.32-3.68-3.19-5.68"/></g></g></svg>