<?xml version="1.0" encoding="UTF-8"?><svg id="Layer_2" xmlns="http://www.w3.org/2000/svg" viewBox="0 0 230.18 599.65"><defs><style>.cls-1{fill:none;stroke:#0006e9;stroke-miterlimit:10;}</style></defs><g id="Layer_1-2"><path class="cls-1" d="M155.48,.28c2.36,3.43,9.18,14.29,7.98,29.07-1.22,15.04-9.98,24.58-13.68,28.5-1.35,1.43-10.36,10.74-24.51,14.82-5.52,1.59-13.01,2.53-27.98,4.4-3.4,.43-4.94,.59-5.56,.64-5.13,.41-9.55,.18-22.73,.58-11.02,.33-23.36,.96-35.32,6.64-3.13,1.49-6.69,3.54-7.22,6.83-.21,1.29-.22,4.5,6.04,9.84,10.23,8.72,22.68,10.74,26.68,11.34,21.36,3.21,38.54,3.08,41.48,3.05,41.85-.5,40.4-.95,51.75-.66,27.88,.71,40.73,3.55,52.54,8.59,15.71,6.71,19.76,13.15,20.74,14.83,7.31,12.4,3.52,28.97-3.21,39.37-9.15,14.14-24.47,18.05-43.29,22.84-16.08,4.1-30.17,4.41-58.34,5.01-17.5,.38-33.75-.03-33.75-.03-17.51-.44-20.6-1.19-32.79-.8,0,0-19.61,.63-37.47,8.14-.68,.29-4.59,1.98-7.98,5.81-1.5,1.69-3.26,3.73-3.04,6.17,.24,2.76,2.89,4.64,4.32,5.57,13.91,9.07,29.78,12.03,29.78,12.03,0,0,18.13,3.38,37.5,9.16,11.52,3.43,21.42,7.12,28.98,15.48,3.22,3.56,4.97,6.82,6.02,9.89,.51,1.51,3.02,9.37-.27,17.63-1.44,3.62-3.36,5.72-4.65,7.32-10.55,13.14-10.19,32.36-10.12,35.61,.08,4.24,.39,14.51,6.32,25.19,1.61,2.89,3.53,6.35,7.25,9.66,6.65,5.9,14.86,7.95,23.26,8.75,9.38,.89,18.89,.46,28.29,1.22,11.97,.97,24,1.61,35.32,6.64,11.45,5.09,7.46,11.5,1.18,16.67-7.71,6.33-16.94,10.13-26.68,11.34-13.74,1.71-27.63,2.8-41.48,3.05-17.24,.31-34.52-1.18-51.75-.66-17.79,.54-35.6,1.99-52.54,8.59-8.27,3.22-15.51,7.71-20.74,14.83-8.39,11.42-6.52,28.78,3.21,39.37,11.79,12.83,27.08,18.64,43.29,22.85,20.58,5.34,41.6,5.37,58.34,5.01,14.12,0,23.94,.13,33.75-.03,10.93-.18,21.89-1.24,32.79-.8,12.87,.52,25.74,2.12,37.47,8.14,2.9,1.49,5.7,3.48,7.98,5.81,4.51,4.61,4.01,8.15-1.28,11.74-9.05,6.16-19.31,9.41-29.78,12.03-12.49,3.12-25.1,5.75-37.5,9.16-10.73,2.95-21,6.95-28.98,15.48-3.7,3.95-5.19,7.41-6.02,9.89-2.56,7.71-.73,14.63,.27,17.63"/></g></svg>