<svg xmlns="http://www.w3.org/2000/svg" xmlns:xlink="http://www.w3.org/1999/xlink" width="1080" zoomAndPan="magnify" viewBox="0 0 810 809.999993" height="1080" preserveAspectRatio="xMidYMid meet" version="1.0"><defs><clipPath id="131e57c2f5"><path d="M 130.246094 83.34375 L 680.765625 83.34375 L 680.765625 810 L 130.246094 810 Z M 130.246094 83.34375 " clip-rule="nonzero"/></clipPath><clipPath id="b41ec16a0d"><path d="M 129.09375 732 L 681 732 L 681 803 L 129.09375 803 Z M 129.09375 732 " clip-rule="nonzero"/></clipPath><clipPath id="d4c1a68ec5"><path d="M 129.09375 768 L 572 768 L 572 810 L 129.09375 810 Z M 129.09375 768 " clip-rule="nonzero"/></clipPath><clipPath id="3e68595f5e"><path d="M 129.09375 732 L 681 732 L 681 803 L 129.09375 803 Z M 129.09375 732 " clip-rule="nonzero"/></clipPath></defs><g clip-path="url(#131e57c2f5)"><path fill="#ff94ae" d="M 680.730469 752.003906 L 680.730469 752.023438 C 680.582031 753.277344 679.929688 754.429688 678.859375 755.140625 C 678.574219 755.359375 678.253906 755.53125 677.898438 755.65625 C 642.253906 768.246094 606.722656 778.6875 571.269531 786.886719 C 564.039062 788.574219 556.808594 790.175781 549.570312 791.675781 C 547.058594 792.210938 544.542969 792.726562 542.019531 793.226562 C 538.980469 793.835938 535.921875 794.433594 532.882812 795.003906 C 532.757812 795.03125 532.628906 795.054688 532.503906 795.074219 L 532.492188 795.074219 L 532.480469 795.089844 C 531.007812 795.363281 529.527344 795.636719 528.058594 795.902344 C 526.464844 796.1875 524.855469 796.472656 523.25 796.761719 C 523.019531 796.8125 522.777344 796.859375 522.550781 796.898438 L 522.550781 796.886719 L 522.539062 796.886719 C 518.496094 797.601562 514.457031 798.296875 510.414062 798.953125 C 505.503906 799.757812 500.597656 800.515625 495.699219 801.226562 C 492.53125 801.699219 489.371094 802.132812 486.203125 802.5625 C 484.183594 802.835938 482.164062 803.105469 480.15625 803.355469 C 478.890625 803.527344 477.628906 803.667969 476.363281 803.824219 C 473.449219 804.171875 470.546875 804.515625 467.617188 804.855469 C 465.757812 805.058594 463.886719 805.273438 462.015625 805.460938 C 456.621094 806.03125 451.222656 806.546875 445.839844 806.996094 C 444.703125 807.097656 443.566406 807.203125 442.441406 807.285156 C 442.003906 807.332031 441.582031 807.367188 441.15625 807.410156 C 439.78125 807.515625 438.414062 807.644531 437.046875 807.746094 C 431.292969 808.167969 425.519531 808.546875 419.769531 808.835938 C 418.917969 808.890625 418.082031 808.941406 417.242188 808.988281 L 417.230469 808.976562 C 416.058594 809.027344 414.898438 809.097656 413.742188 809.132812 C 409.726562 809.332031 405.707031 809.476562 401.699219 809.605469 C 399.851562 809.664062 397.988281 809.71875 396.121094 809.753906 C 395.226562 809.789062 394.320312 809.8125 393.410156 809.820312 L 393.296875 809.8125 C 391.953125 809.855469 390.597656 809.890625 389.277344 809.902344 L 389.253906 809.902344 C 385.777344 809.960938 382.289062 810.007812 378.808594 809.992188 C 377.054688 810.007812 375.296875 810.007812 373.527344 809.992188 C 372.148438 809.992188 370.761719 809.972656 369.371094 809.972656 C 368.992188 809.988281 368.613281 809.988281 368.246094 809.960938 C 362.964844 809.902344 357.6875 809.800781 352.40625 809.628906 C 305.140625 808.195312 258.074219 802.511719 211.199219 792.449219 L 211.121094 792.4375 C 185.152344 786.871094 159.253906 779.960938 133.414062 771.664062 C 131.367188 771 130.175781 768.96875 130.507812 766.925781 C 130.550781 766.648438 130.621094 766.386719 130.714844 766.117188 L 139.875 740.992188 L 147.921875 718.894531 L 167.164062 666.09375 L 178.757812 634.296875 L 197.332031 583.308594 L 203.464844 566.507812 L 206.195312 559 L 212.507812 541.648438 L 213.152344 539.890625 L 228.707031 497.191406 L 231.425781 489.734375 L 239.5 467.59375 L 260.65625 409.535156 L 266.050781 394.734375 L 272.089844 378.160156 L 282.765625 348.871094 L 288.574219 332.945312 L 296.402344 311.4375 L 313.234375 265.269531 L 317.632812 253.199219 L 328.480469 223.429688 L 338.984375 194.578125 L 343.34375 182.59375 L 365.6875 121.3125 L 368.601562 113.316406 L 378.453125 86.277344 C 379.761719 82.675781 384.800781 82.503906 386.339844 86.011719 L 398.394531 113.214844 L 400.390625 117.710938 L 400.390625 117.726562 L 403.339844 124.414062 L 416.359375 153.789062 L 428.585938 181.367188 L 453.554688 237.714844 L 456.46875 244.292969 L 456.46875 244.335938 L 465.804688 265.40625 L 479.074219 295.359375 L 482.53125 303.152344 L 493.058594 326.941406 L 512.21875 370.207031 L 527.679688 405.128906 L 542.113281 437.707031 L 562.570312 483.890625 L 573.554688 508.710938 L 574.164062 510.054688 L 574.828125 511.570312 L 590.914062 547.878906 L 598.234375 564.40625 L 609.738281 590.363281 L 610.855469 592.867188 L 610.855469 592.890625 L 628.007812 631.644531 L 628.152344 631.988281 L 639.601562 657.820312 L 663.636719 712.105469 L 672.59375 732.332031 L 680.375 749.902344 C 680.6875 750.585938 680.789062 751.308594 680.730469 752.003906 " fill-opacity="1" fill-rule="nonzero"/></g><path fill="#fc7247" d="M 453.554688 237.714844 C 453.382812 237.714844 453.210938 237.714844 453.050781 237.703125 C 447.078125 237.578125 441.125 237.371094 435.175781 237.085938 C 423.625 236.53125 412.121094 235.683594 400.679688 234.546875 C 384.179688 232.910156 367.800781 230.667969 351.554688 227.847656 C 343.828125 226.503906 336.136719 225.035156 328.480469 223.429688 L 338.984375 194.578125 L 343.34375 182.59375 C 353.703125 183.15625 364.054688 183.457031 374.390625 183.492188 C 376.398438 183.503906 378.40625 183.503906 380.417969 183.492188 C 381.207031 183.492188 382.011719 183.480469 382.800781 183.46875 L 383.320312 183.46875 C 394.113281 183.363281 404.890625 182.976562 415.636719 182.308594 C 419.800781 182.058594 423.960938 181.757812 428.117188 181.414062 C 428.273438 181.402344 428.425781 181.394531 428.585938 181.367188 L 453.554688 237.714844 " fill-opacity="1" fill-rule="nonzero"/><path fill="#ef4b4b" d="M 482.53125 303.152344 C 482.378906 303.1875 482.230469 303.210938 482.070312 303.234375 C 474.195312 304.574219 466.285156 305.792969 458.363281 306.882812 C 445.796875 308.605469 433.1875 310.003906 420.539062 311.09375 C 405.601562 312.367188 390.621094 313.203125 375.605469 313.582031 C 363.847656 313.894531 352.070312 313.917969 340.28125 313.664062 C 332.933594 313.503906 325.585938 313.238281 318.230469 312.859375 C 310.953125 312.496094 303.683594 312.023438 296.402344 311.4375 L 313.234375 265.269531 C 320.617188 266.085938 328.007812 266.773438 335.402344 267.347656 C 342.96875 267.945312 350.546875 268.40625 358.121094 268.746094 C 365.421875 269.078125 372.710938 269.296875 380.015625 269.390625 C 390.058594 269.539062 400.101562 269.46875 410.148438 269.183594 C 421.9375 268.851562 433.707031 268.230469 445.472656 267.300781 C 452.097656 266.785156 458.71875 266.164062 465.34375 265.464844 C 465.492188 265.441406 465.65625 265.429688 465.804688 265.40625 L 479.074219 295.359375 L 482.53125 303.152344 " fill-opacity="1" fill-rule="nonzero"/><path fill="#8f60c6" d="M 512.21875 370.207031 C 512.066406 370.242188 511.917969 370.265625 511.769531 370.289062 C 500.851562 372.261719 489.914062 374.019531 478.9375 375.542969 C 464.578125 377.539062 450.167969 379.15625 435.726562 380.398438 C 411.46875 382.476562 387.109375 383.484375 362.75 383.417969 C 348.285156 383.371094 333.816406 382.945312 319.363281 382.15625 C 311.074219 381.695312 302.789062 381.109375 294.507812 380.398438 C 287.023438 379.753906 279.554688 379.007812 272.089844 378.160156 L 282.765625 348.871094 C 290.261719 349.113281 297.761719 349.226562 305.230469 349.242188 L 305.246094 349.242188 C 313.132812 349.261719 321.007812 349.171875 328.871094 348.941406 L 328.882812 348.941406 C 342.679688 348.574219 356.410156 347.828125 370.097656 346.738281 C 389.242188 345.199219 408.289062 342.964844 427.164062 340.046875 C 440.34375 338.015625 453.4375 335.652344 466.445312 332.945312 C 475.21875 331.140625 483.941406 329.167969 492.621094 327.058594 C 492.757812 327.023438 492.910156 326.988281 493.058594 326.941406 L 512.21875 370.207031 " fill-opacity="1" fill-rule="nonzero"/><path fill="#536dbc" d="M 562.570312 483.890625 C 562.40625 483.914062 562.257812 483.925781 562.109375 483.933594 L 562.097656 483.933594 C 543.5 485.863281 524.902344 487.277344 506.304688 488.203125 C 489.050781 489.066406 471.808594 489.5 454.589844 489.527344 C 415.199219 489.558594 375.929688 487.402344 336.953125 483.0625 C 323.945312 481.628906 310.960938 479.941406 298.023438 478.015625 C 286.902344 476.359375 275.808594 474.527344 264.742188 472.503906 C 256.304688 470.980469 247.890625 469.347656 239.5 467.59375 L 260.65625 409.535156 C 268.414062 410.464844 276.179688 411.304688 283.949219 412.050781 L 283.960938 412.050781 C 293.019531 412.921875 302.0625 413.667969 311.121094 414.289062 C 325.828125 415.285156 340.53125 415.949219 355.242188 416.292969 C 384.332031 416.960938 413.386719 416.355469 442.339844 414.460938 C 457.722656 413.460938 473.058594 412.085938 488.363281 410.351562 C 501.359375 408.90625 514.304688 407.171875 527.234375 405.199219 C 527.382812 405.175781 527.53125 405.152344 527.679688 405.128906 L 542.113281 437.707031 L 562.570312 483.890625 " fill-opacity="1" fill-rule="nonzero"/><path fill="#6ac8e1" d="M 598.234375 564.40625 C 598.078125 564.429688 597.925781 564.441406 597.777344 564.453125 L 597.765625 564.453125 C 571.246094 567.261719 544.738281 569.136719 518.269531 570.085938 C 499.679688 570.753906 481.105469 570.96875 462.578125 570.71875 C 388.460938 569.789062 314.945312 561.664062 243.046875 546.582031 C 233.046875 544.496094 223.082031 542.269531 213.152344 539.890625 L 228.707031 497.191406 C 237.695312 499.027344 246.695312 500.746094 255.730469 502.34375 C 268.484375 504.601562 281.285156 506.644531 294.117188 508.449219 C 304.992188 509.988281 315.886719 511.351562 326.816406 512.546875 C 370.40625 517.355469 414.316406 519.53125 458.320312 519.054688 C 476.054688 518.867188 493.792969 518.234375 511.539062 517.179688 C 532.492188 515.941406 553.441406 514.082031 574.371094 511.628906 C 574.519531 511.613281 574.679688 511.59375 574.828125 511.570312 L 590.914062 547.878906 L 598.234375 564.40625 " fill-opacity="1" fill-rule="nonzero"/><path fill="#9ebc40" d="M 628.152344 631.988281 C 628.007812 632.023438 627.855469 632.046875 627.707031 632.054688 C 590.902344 638.300781 553.914062 643.039062 516.808594 646.277344 C 496.121094 648.089844 475.402344 649.421875 454.667969 650.292969 C 376.429688 653.585938 298 650.246094 220.1875 640.25 C 206.355469 638.484375 192.542969 636.5 178.757812 634.296875 L 197.332031 583.308594 L 203.464844 566.507812 C 214.242188 568.847656 225.066406 571.039062 235.917969 573.105469 C 310.457031 587.300781 386.453125 595.09375 463.070312 596.238281 C 481.910156 596.539062 500.796875 596.414062 519.703125 595.886719 C 549.503906 595.082031 579.375 593.257812 609.257812 590.398438 C 609.417969 590.398438 609.582031 590.378906 609.738281 590.363281 L 610.855469 592.867188 L 610.855469 592.890625 L 628.007812 631.644531 L 628.152344 631.988281 " fill-opacity="1" fill-rule="nonzero"/><path fill="#f8e33e" d="M 663.636719 712.105469 C 663.5 712.125 663.351562 712.160156 663.203125 712.1875 C 592.382812 725.253906 520.761719 733.289062 448.882812 736.246094 C 348.558594 740.378906 247.753906 734.632812 147.921875 718.894531 L 167.164062 666.09375 C 183.050781 668.402344 198.964844 670.433594 214.886719 672.203125 C 286.1875 680.15625 357.777344 682.863281 429.101562 680.371094 C 455.6875 679.457031 482.230469 677.8125 508.707031 675.449219 C 552.417969 671.558594 595.941406 665.707031 639.152344 657.902344 C 639.300781 657.878906 639.449219 657.855469 639.601562 657.820312 L 663.636719 712.105469 " fill-opacity="1" fill-rule="nonzero"/><g clip-path="url(#b41ec16a0d)"><path fill="#fc7247" d="M 678.859375 755.140625 C 678.574219 755.359375 678.253906 755.53125 677.898438 755.65625 C 642.253906 768.246094 606.722656 778.6875 571.269531 786.886719 C 564.039062 788.574219 556.808594 790.175781 549.570312 791.675781 C 547.058594 792.210938 544.542969 792.726562 542.019531 793.226562 C 538.980469 793.835938 535.921875 794.433594 532.882812 795.003906 C 532.757812 795.03125 532.628906 795.054688 532.503906 795.074219 L 532.492188 795.074219 L 532.480469 795.089844 C 425.738281 805.101562 318.089844 804.253906 211.199219 792.449219 L 211.121094 792.4375 C 210.730469 792.402344 210.339844 792.351562 209.960938 792.3125 C 183.75 786.664062 157.613281 779.652344 131.527344 771.230469 C 129.992188 770.726562 129.1875 769.058594 129.726562 767.53125 L 129.96875 766.875 C 130.140625 766.890625 130.332031 766.917969 130.507812 766.925781 C 130.550781 766.648438 130.621094 766.386719 130.714844 766.117188 L 139.875 740.992188 C 220.796875 753.863281 302.375 760.210938 383.847656 760.097656 C 480.535156 759.96875 577.066406 750.726562 672.15625 732.429688 C 672.308594 732.402344 672.445312 732.367188 672.59375 732.332031 L 680.375 749.902344 C 680.6875 750.585938 680.789062 751.308594 680.730469 752.003906 L 680.730469 752.023438 C 680.9375 753.347656 680.191406 754.691406 678.859375 755.140625 " fill-opacity="1" fill-rule="nonzero"/></g><path fill="#ffa9be" d="M 377.867188 681.265625 C 323.539062 681.265625 269.125 678.25 214.886719 672.203125 C 216.046875 662.851562 217.847656 652.128906 220.191406 640.25 C 278.695312 647.765625 337.542969 651.519531 396.402344 651.519531 C 415.828125 651.519531 435.257812 651.109375 454.667969 650.292969 C 454.667969 650.292969 454.667969 650.292969 454.671875 650.292969 C 453.753906 652.242188 452.757812 653.996094 451.671875 655.554688 C 445.136719 664.957031 437.519531 673.195312 429.105469 680.371094 C 429.105469 680.371094 429.101562 680.371094 429.101562 680.371094 C 412.035156 680.96875 394.960938 681.265625 377.867188 681.265625 M 463.070312 596.238281 C 386.453125 595.09375 310.457031 587.300781 235.917969 573.105469 C 238.175781 564.472656 240.558594 555.632812 243.058594 546.585938 C 314.953125 561.664062 388.46875 569.789062 462.578125 570.71875 C 462.578125 570.71875 462.582031 570.71875 462.585938 570.71875 C 462.992188 579.699219 463.160156 588.242188 463.066406 596.238281 M 446.367188 519.117188 C 406.371094 519.117188 366.460938 516.917969 326.824219 512.546875 C 330.171875 503.773438 333.574219 493.820312 336.953125 483.0625 C 375.628906 487.367188 414.597656 489.527344 453.6875 489.527344 C 453.984375 489.527344 454.285156 489.527344 454.589844 489.527344 C 454.589844 489.527344 454.589844 489.527344 454.59375 489.527344 C 455.984375 499.566406 457.230469 509.425781 458.320312 519.054688 C 454.332031 519.097656 450.351562 519.117188 446.367188 519.117188 M 294.117188 508.449219 C 281.285156 506.644531 268.488281 504.601562 255.738281 502.34375 C 258.65625 492.492188 261.667969 482.515625 264.746094 472.503906 C 275.808594 474.527344 286.894531 476.359375 298.011719 478.011719 C 296.230469 489.03125 294.898438 499.300781 294.117188 508.449219 M 378.011719 416.554688 C 370.425781 416.554688 362.835938 416.46875 355.246094 416.292969 C 357.882812 405.382812 360.402344 394.339844 362.757812 383.417969 C 363.527344 383.417969 364.296875 383.417969 365.070312 383.417969 C 388.65625 383.417969 412.242188 382.410156 435.726562 380.398438 C 435.726562 380.398438 435.730469 380.398438 435.730469 380.398438 C 438.007812 391.65625 440.222656 403.054688 442.335938 414.460938 C 420.941406 415.859375 399.492188 416.554688 378.011719 416.554688 M 311.117188 414.289062 C 302.0625 413.667969 293.019531 412.921875 283.960938 412.050781 C 287.453125 401.402344 290.980469 390.828125 294.515625 380.398438 C 302.785156 381.109375 311.070312 381.695312 319.351562 382.152344 C 316.457031 392.828125 313.695312 403.597656 311.117188 414.289062 M 307.585938 349.246094 C 306.804688 349.246094 306.023438 349.246094 305.246094 349.242188 L 305.242188 349.242188 C 309.617188 336.738281 313.964844 324.574219 318.238281 312.863281 C 325.59375 313.238281 332.933594 313.503906 340.277344 313.664062 C 336.464844 324.667969 332.625 336.554688 328.875 348.941406 L 328.871094 348.941406 C 321.785156 349.148438 314.691406 349.246094 307.585938 349.246094 M 370.097656 346.738281 C 372.230469 335.121094 374.09375 323.953125 375.609375 313.582031 C 390.625 313.203125 405.605469 312.367188 420.539062 311.09375 C 422.757812 320.484375 424.976562 330.167969 427.167969 340.046875 C 427.164062 340.046875 427.164062 340.046875 427.164062 340.046875 C 408.289062 342.964844 389.242188 345.199219 370.097656 346.738281 M 390.332031 269.46875 C 386.894531 269.46875 383.457031 269.441406 380.019531 269.390625 C 380.347656 255.886719 378.878906 247.597656 375.089844 247.035156 C 374.9375 247.011719 374.78125 247 374.625 247 C 370.421875 247 364.65625 255.136719 358.117188 268.746094 C 350.546875 268.40625 342.96875 267.945312 335.40625 267.347656 C 341.128906 252.714844 346.5625 239.421875 351.574219 227.851562 C 367.8125 230.671875 384.1875 232.910156 400.679688 234.546875 C 403.699219 244.984375 406.890625 256.636719 410.15625 269.183594 C 410.15625 269.183594 410.152344 269.183594 410.148438 269.183594 C 403.542969 269.375 396.9375 269.46875 390.332031 269.46875 M 377.402344 183.5 C 376.398438 183.5 375.398438 183.496094 374.394531 183.492188 C 376.277344 181.113281 377.867188 179.765625 379.132812 179.554688 C 379.183594 179.550781 379.226562 179.542969 379.277344 179.542969 C 379.453125 179.542969 379.636719 179.59375 379.832031 179.691406 L 380.417969 183.492188 C 379.410156 183.496094 378.40625 183.5 377.402344 183.5 " fill-opacity="1" fill-rule="nonzero"/><path fill="#fd8955" d="M 400.679688 234.546875 C 384.1875 232.910156 367.8125 230.671875 351.574219 227.851562 C 361 206.078125 368.917969 190.414062 374.394531 183.492188 C 375.398438 183.496094 376.398438 183.5 377.402344 183.5 C 378.40625 183.5 379.410156 183.496094 380.417969 183.492188 L 381.496094 190.5 L 383.15625 184.109375 C 387.390625 192.078125 393.582031 210.03125 400.679688 234.546875 " fill-opacity="1" fill-rule="nonzero"/><path fill="#f25a5a" d="M 340.277344 313.664062 C 332.933594 313.503906 325.59375 313.238281 318.238281 312.863281 C 324.140625 296.691406 329.90625 281.40625 335.40625 267.347656 C 342.96875 267.945312 350.546875 268.40625 358.117188 268.746094 C 352.566406 280.3125 346.460938 295.824219 340.277344 313.664062 M 375.609375 313.582031 C 378.164062 296.101562 379.742188 280.867188 380.019531 269.390625 C 383.457031 269.441406 386.894531 269.46875 390.332031 269.46875 C 396.9375 269.46875 403.542969 269.375 410.148438 269.183594 C 410.152344 269.183594 410.15625 269.183594 410.15625 269.183594 C 413.5625 282.261719 417.046875 296.3125 420.539062 311.09375 C 405.605469 312.367188 390.625 313.203125 375.609375 313.582031 " fill-opacity="1" fill-rule="nonzero"/><path fill="#a573d1" d="M 365.070312 383.417969 C 364.296875 383.417969 363.527344 383.417969 362.757812 383.417969 C 365.445312 370.929688 367.914062 358.597656 370.097656 346.738281 C 389.242188 345.199219 408.289062 342.964844 427.164062 340.046875 C 427.164062 340.046875 427.164062 340.046875 427.167969 340.046875 C 430.085938 353.1875 432.960938 366.710938 435.730469 380.398438 C 435.730469 380.398438 435.726562 380.398438 435.726562 380.398438 C 412.242188 382.410156 388.65625 383.417969 365.070312 383.417969 M 319.351562 382.152344 C 311.070312 381.695312 302.785156 381.109375 294.515625 380.398438 C 298.089844 369.84375 301.675781 359.429688 305.242188 349.242188 L 305.246094 349.242188 C 306.023438 349.246094 306.804688 349.246094 307.585938 349.246094 C 314.691406 349.246094 321.785156 349.148438 328.871094 348.941406 L 328.875 348.941406 C 325.613281 359.714844 322.410156 370.878906 319.351562 382.152344 " fill-opacity="1" fill-rule="nonzero"/><path fill="#6483c9" d="M 453.6875 489.527344 C 414.597656 489.527344 375.628906 487.367188 336.953125 483.0625 C 343.289062 462.898438 349.542969 439.882812 355.246094 416.292969 C 362.835938 416.46875 370.425781 416.554688 378.011719 416.554688 C 399.492188 416.554688 420.941406 415.859375 442.339844 414.460938 C 447.019531 439.742188 451.21875 465.128906 454.59375 489.527344 C 454.589844 489.527344 454.589844 489.527344 454.589844 489.527344 C 454.285156 489.527344 453.984375 489.527344 453.6875 489.527344 M 298.011719 478.011719 C 286.894531 476.359375 275.808594 474.527344 264.746094 472.503906 C 270.925781 452.40625 277.386719 432.097656 283.960938 412.050781 C 293.019531 412.921875 302.0625 413.667969 311.117188 414.289062 C 305.730469 436.613281 301.171875 458.503906 298.011719 478.011719 " fill-opacity="1" fill-rule="nonzero"/><path fill="#7fd3e7" d="M 462.585938 570.71875 C 462.582031 570.71875 462.578125 570.71875 462.578125 570.71875 C 388.46875 569.789062 314.953125 561.664062 243.058594 546.585938 C 247.023438 532.230469 251.277344 517.410156 255.738281 502.34375 C 268.488281 504.601562 281.285156 506.644531 294.117188 508.449219 C 292.230469 530.492188 293.558594 546.082031 299.550781 550.320312 C 300.449219 550.957031 301.390625 551.265625 302.367188 551.269531 C 309.210938 551.269531 317.832031 536.105469 326.824219 512.546875 C 366.460938 516.917969 406.371094 519.117188 446.367188 519.117188 C 450.351562 519.117188 454.332031 519.097656 458.320312 519.054688 C 460.382812 537.335938 461.859375 554.734375 462.585938 570.71875 " fill-opacity="1" fill-rule="nonzero"/><path fill="#b1c94d" d="M 396.402344 651.519531 C 337.542969 651.519531 278.695312 647.765625 220.1875 640.25 C 224.078125 620.585938 229.46875 597.785156 235.917969 573.105469 C 310.457031 587.300781 386.453125 595.09375 463.070312 596.238281 C 462.789062 619.675781 460.230469 638.476562 454.671875 650.292969 C 454.667969 650.292969 454.667969 650.292969 454.667969 650.292969 C 435.257812 651.109375 415.828125 651.519531 396.402344 651.519531 " fill-opacity="1" fill-rule="nonzero"/><path fill="#f9e94a" d="M 290.933594 723.8125 C 259.339844 723.8125 232.328125 718.539062 218.695312 711.667969 C 212.964844 708.785156 212.117188 694.4375 214.886719 672.203125 C 269.125 678.25 323.539062 681.265625 377.867188 681.265625 C 394.960938 681.265625 412.035156 680.96875 429.101562 680.371094 C 429.101562 680.371094 429.105469 680.371094 429.105469 680.371094 C 390.902344 712.964844 336.214844 723.8125 290.933594 723.8125 " fill-opacity="1" fill-rule="nonzero"/><path fill="#ffbacb" d="M 326.824219 512.546875 C 326.820312 512.546875 326.816406 512.546875 326.816406 512.546875 C 315.886719 511.351562 304.992188 509.988281 294.117188 508.449219 C 294.898438 499.300781 296.230469 489.03125 298.011719 478.011719 C 298.015625 478.011719 298.023438 478.011719 298.023438 478.015625 C 310.960938 479.941406 323.945312 481.628906 336.953125 483.0625 C 333.574219 493.820312 330.171875 503.773438 326.824219 512.546875 M 355.246094 416.292969 C 355.246094 416.292969 355.242188 416.292969 355.242188 416.292969 C 340.53125 415.949219 325.828125 415.285156 311.121094 414.289062 C 311.121094 414.289062 311.117188 414.289062 311.117188 414.289062 C 313.695312 403.597656 316.457031 392.828125 319.351562 382.152344 C 319.355469 382.152344 319.363281 382.15625 319.363281 382.15625 C 333.816406 382.945312 348.285156 383.371094 362.75 383.417969 C 362.75 383.417969 362.753906 383.417969 362.757812 383.417969 C 360.402344 394.339844 357.882812 405.382812 355.246094 416.292969 M 328.882812 348.941406 L 328.875 348.941406 C 332.625 336.554688 336.464844 324.667969 340.277344 313.664062 C 340.28125 313.664062 340.28125 313.664062 340.28125 313.664062 C 345.640625 313.78125 350.992188 313.835938 356.34375 313.835938 C 362.769531 313.835938 369.191406 313.753906 375.605469 313.582031 C 375.609375 313.582031 375.609375 313.582031 375.609375 313.582031 C 374.09375 323.953125 372.230469 335.121094 370.097656 346.738281 C 356.410156 347.828125 342.679688 348.574219 328.882812 348.941406 M 380.019531 269.390625 C 380.015625 269.390625 380.015625 269.390625 380.015625 269.390625 C 372.710938 269.296875 365.421875 269.078125 358.121094 268.746094 C 358.121094 268.746094 358.117188 268.746094 358.117188 268.746094 C 364.65625 255.136719 370.421875 247 374.625 247 C 374.78125 247 374.9375 247.011719 375.089844 247.035156 C 378.878906 247.597656 380.347656 255.886719 380.019531 269.390625 " fill-opacity="1" fill-rule="nonzero"/><path fill="#f56c6c" d="M 356.34375 313.835938 C 350.992188 313.835938 345.640625 313.78125 340.28125 313.664062 C 340.28125 313.664062 340.28125 313.664062 340.277344 313.664062 C 346.460938 295.824219 352.566406 280.3125 358.117188 268.746094 C 358.117188 268.746094 358.121094 268.746094 358.121094 268.746094 C 365.421875 269.078125 372.710938 269.296875 380.015625 269.390625 C 380.015625 269.390625 380.015625 269.390625 380.019531 269.390625 C 379.742188 280.867188 378.164062 296.101562 375.609375 313.582031 C 375.609375 313.582031 375.609375 313.582031 375.605469 313.582031 C 369.191406 313.753906 362.769531 313.835938 356.34375 313.835938 " fill-opacity="1" fill-rule="nonzero"/><path fill="#b78ada" d="M 362.757812 383.417969 C 362.753906 383.417969 362.75 383.417969 362.75 383.417969 C 348.285156 383.371094 333.816406 382.945312 319.363281 382.15625 C 319.363281 382.15625 319.355469 382.152344 319.351562 382.152344 C 322.410156 370.878906 325.613281 359.714844 328.875 348.941406 L 328.882812 348.941406 C 342.679688 348.574219 356.410156 347.828125 370.097656 346.738281 C 367.914062 358.597656 365.445312 370.929688 362.757812 383.417969 " fill-opacity="1" fill-rule="nonzero"/><path fill="#789cd4" d="M 336.953125 483.0625 C 323.945312 481.628906 310.960938 479.941406 298.023438 478.015625 C 298.023438 478.011719 298.015625 478.011719 298.011719 478.011719 C 301.171875 458.503906 305.730469 436.613281 311.117188 414.289062 C 311.117188 414.289062 311.121094 414.289062 311.121094 414.289062 C 325.828125 415.285156 340.53125 415.949219 355.242188 416.292969 C 355.242188 416.292969 355.246094 416.292969 355.246094 416.292969 C 349.542969 439.882812 343.289062 462.898438 336.953125 483.0625 " fill-opacity="1" fill-rule="nonzero"/><path fill="#98dcec" d="M 302.367188 551.269531 C 301.390625 551.265625 300.449219 550.957031 299.550781 550.320312 C 293.558594 546.082031 292.230469 530.492188 294.117188 508.449219 C 304.992188 509.988281 315.886719 511.351562 326.816406 512.546875 C 326.816406 512.546875 326.820312 512.546875 326.824219 512.546875 C 317.832031 536.105469 309.210938 551.269531 302.367188 551.269531 " fill-opacity="1" fill-rule="nonzero"/><g clip-path="url(#d4c1a68ec5)"><path fill="#b2b2b2" d="M 376.171875 810 C 375.292969 810 374.410156 810 373.527344 809.992188 C 372.148438 809.992188 370.761719 809.972656 369.371094 809.972656 C 369.214844 809.976562 369.058594 809.976562 368.902344 809.976562 C 368.683594 809.976562 368.460938 809.972656 368.246094 809.960938 C 355.332031 809.847656 342.453125 809.398438 329.582031 808.648438 L 329.570312 808.644531 C 289.550781 806.300781 249.691406 800.882812 209.960938 792.3125 C 183.75 786.664062 157.613281 779.652344 131.527344 771.230469 C 130.316406 770.828125 129.558594 769.707031 129.558594 768.507812 C 129.558594 769.707031 130.316406 770.828125 131.527344 771.230469 C 157.613281 779.652344 183.75 786.664062 209.960938 792.3125 C 210.339844 792.351562 210.730469 792.402344 211.121094 792.4375 L 211.199219 792.449219 C 258.074219 802.511719 305.140625 808.195312 352.40625 809.628906 C 357.6875 809.800781 362.964844 809.902344 368.246094 809.960938 C 368.460938 809.972656 368.683594 809.976562 368.902344 809.976562 C 369.058594 809.976562 369.214844 809.976562 369.371094 809.972656 C 370.761719 809.972656 372.148438 809.992188 373.527344 809.992188 C 374.410156 810 375.292969 810 376.171875 810 C 377.050781 810 377.929688 810 378.808594 809.992188 C 379.175781 809.992188 379.539062 809.992188 379.90625 809.992188 C 383.019531 809.992188 386.140625 809.953125 389.253906 809.902344 L 389.277344 809.902344 C 390.597656 809.890625 391.953125 809.855469 393.296875 809.8125 L 393.410156 809.820312 C 394.320312 809.8125 395.226562 809.789062 396.121094 809.753906 C 397.988281 809.71875 399.851562 809.664062 401.699219 809.605469 C 405.707031 809.476562 409.726562 809.332031 413.742188 809.132812 C 409.726562 809.332031 405.707031 809.476562 401.699219 809.605469 C 399.851562 809.664062 397.988281 809.71875 396.121094 809.753906 C 395.226562 809.789062 394.320312 809.8125 393.410156 809.820312 L 393.296875 809.8125 C 391.953125 809.855469 390.597656 809.890625 389.277344 809.902344 L 389.253906 809.902344 C 386.140625 809.953125 383.019531 809.992188 379.90625 809.992188 C 379.539062 809.992188 379.175781 809.992188 378.808594 809.992188 C 377.929688 810 377.050781 810 376.171875 810 M 440.609375 807.453125 C 440.792969 807.4375 440.976562 807.425781 441.15625 807.410156 C 441.582031 807.367188 442.003906 807.332031 442.441406 807.285156 C 443.566406 807.203125 444.703125 807.097656 445.839844 806.996094 C 451.222656 806.546875 456.621094 806.03125 462.015625 805.460938 C 463.886719 805.273438 465.757812 805.058594 467.617188 804.855469 C 470.546875 804.515625 473.449219 804.171875 476.363281 803.824219 C 477.628906 803.667969 478.890625 803.527344 480.15625 803.355469 C 482.164062 803.105469 484.183594 802.835938 486.203125 802.5625 C 489.371094 802.132812 492.53125 801.699219 495.699219 801.226562 C 500.597656 800.515625 505.503906 799.757812 510.414062 798.953125 C 514.457031 798.296875 518.496094 797.601562 522.539062 796.886719 L 522.550781 796.886719 L 522.550781 796.898438 C 522.777344 796.859375 523.019531 796.8125 523.25 796.761719 C 524.855469 796.472656 526.464844 796.1875 528.058594 795.902344 C 529.527344 795.636719 531.007812 795.363281 532.480469 795.089844 L 532.492188 795.074219 L 532.503906 795.074219 C 532.628906 795.054688 532.757812 795.03125 532.882812 795.003906 C 535.921875 794.433594 538.980469 793.835938 542.019531 793.226562 C 544.542969 792.726562 547.058594 792.210938 549.570312 791.675781 C 556.808594 790.175781 564.039062 788.574219 571.269531 786.886719 C 564.039062 788.574219 556.808594 790.175781 549.570312 791.675781 C 547.058594 792.210938 544.542969 792.726562 542.019531 793.226562 C 538.980469 793.835938 535.921875 794.433594 532.882812 795.003906 C 532.757812 795.03125 532.628906 795.054688 532.503906 795.074219 L 532.492188 795.074219 L 532.480469 795.089844 C 531.007812 795.363281 529.527344 795.636719 528.058594 795.902344 C 526.222656 796.246094 524.386719 796.582031 522.550781 796.898438 L 522.539062 796.886719 C 518.496094 797.601562 514.457031 798.296875 510.414062 798.953125 C 505.503906 799.757812 500.597656 800.515625 495.699219 801.226562 C 492.53125 801.699219 489.371094 802.132812 486.203125 802.5625 C 484.183594 802.835938 482.164062 803.105469 480.15625 803.355469 C 478.890625 803.527344 477.628906 803.667969 476.363281 803.824219 C 473.449219 804.171875 470.546875 804.515625 467.617188 804.855469 C 465.757812 805.058594 463.886719 805.273438 462.015625 805.460938 C 456.621094 806.03125 451.222656 806.546875 445.839844 806.996094 C 444.703125 807.097656 443.566406 807.203125 442.441406 807.285156 C 442.003906 807.332031 441.582031 807.367188 441.15625 807.410156 C 440.976562 807.425781 440.792969 807.4375 440.609375 807.453125 " fill-opacity="1" fill-rule="nonzero"/></g><path fill="#ff7496" d="M 376.171875 810 C 375.292969 810 374.410156 810 373.527344 809.992188 C 372.148438 809.992188 370.761719 809.972656 369.371094 809.972656 C 369.214844 809.976562 369.058594 809.976562 368.902344 809.976562 C 368.683594 809.976562 368.460938 809.972656 368.246094 809.960938 C 362.964844 809.902344 357.6875 809.800781 352.40625 809.628906 C 305.140625 808.195312 258.074219 802.511719 211.199219 792.449219 C 268.917969 798.820312 326.855469 802.003906 384.753906 802.003906 C 434.078125 802.003906 483.375 799.695312 532.480469 795.089844 C 531.007812 795.363281 529.527344 795.636719 528.058594 795.902344 C 526.464844 796.1875 524.855469 796.472656 523.25 796.761719 C 523.019531 796.8125 522.777344 796.859375 522.550781 796.898438 L 522.550781 796.886719 L 522.539062 796.886719 C 518.496094 797.601562 514.457031 798.296875 510.414062 798.953125 C 505.503906 799.757812 500.597656 800.515625 495.699219 801.226562 C 492.53125 801.699219 489.371094 802.132812 486.203125 802.5625 C 484.183594 802.835938 482.164062 803.105469 480.15625 803.355469 C 478.890625 803.527344 477.628906 803.667969 476.363281 803.824219 C 473.449219 804.171875 470.546875 804.515625 467.617188 804.855469 C 465.757812 805.058594 463.886719 805.273438 462.015625 805.460938 C 456.621094 806.03125 451.222656 806.546875 445.839844 806.996094 C 444.703125 807.097656 443.566406 807.203125 442.441406 807.285156 C 442.003906 807.332031 441.582031 807.367188 441.15625 807.410156 C 440.976562 807.425781 440.792969 807.4375 440.609375 807.453125 C 433.664062 807.988281 426.703125 808.457031 419.769531 808.835938 C 418.917969 808.882812 418.058594 808.917969 417.210938 808.957031 C 416.050781 809.027344 414.898438 809.078125 413.742188 809.132812 C 409.726562 809.332031 405.707031 809.476562 401.699219 809.605469 C 399.851562 809.664062 397.988281 809.71875 396.121094 809.753906 C 395.226562 809.789062 394.320312 809.8125 393.410156 809.820312 L 393.296875 809.8125 C 391.953125 809.855469 390.597656 809.890625 389.277344 809.902344 L 389.253906 809.902344 C 386.140625 809.953125 383.019531 809.992188 379.90625 809.992188 C 379.539062 809.992188 379.175781 809.992188 378.808594 809.992188 C 377.929688 810 377.050781 810 376.171875 810 M 383.847656 760.097656 C 407.335938 754.503906 429.515625 746.785156 448.882812 736.246094 C 520.761719 733.289062 592.382812 725.253906 663.203125 712.1875 L 672.15625 732.429688 C 577.066406 750.726562 480.535156 759.96875 383.847656 760.097656 M 508.707031 675.449219 C 512.34375 666.886719 515.007812 657.101562 516.808594 646.277344 C 553.914062 643.039062 590.902344 638.300781 627.707031 632.054688 L 639.152344 657.902344 C 595.941406 665.707031 552.417969 671.558594 508.707031 675.449219 M 519.703125 595.886719 C 519.496094 587.578125 519.003906 578.957031 518.269531 570.085938 C 544.738281 569.136719 571.246094 567.261719 597.765625 564.453125 L 597.777344 564.453125 L 609.257812 590.398438 C 579.375 593.257812 549.503906 595.082031 519.703125 595.886719 M 511.539062 517.179688 C 509.976562 507.667969 508.222656 498.007812 506.304688 488.203125 C 524.902344 487.277344 543.5 485.863281 562.097656 483.933594 L 562.109375 483.933594 L 564.15625 488.558594 L 573.761719 510.238281 L 574.371094 511.628906 C 553.441406 514.082031 532.492188 515.941406 511.539062 517.179688 M 488.363281 410.351562 C 485.355469 398.75 482.195312 387.125 478.9375 375.542969 C 489.914062 374.019531 500.851562 372.261719 511.769531 370.289062 L 515.328125 378.320312 L 527.234375 405.199219 C 514.304688 407.171875 501.359375 408.90625 488.363281 410.351562 M 466.445312 332.945312 C 463.78125 324.175781 461.085938 315.476562 458.363281 306.882812 C 466.285156 305.792969 474.195312 304.574219 482.070312 303.234375 L 492.621094 327.058594 C 483.941406 329.167969 475.21875 331.140625 466.445312 332.945312 M 445.472656 267.300781 C 442.015625 256.972656 438.574219 246.886719 435.175781 237.085938 C 441.125 237.371094 447.078125 237.578125 453.050781 237.703125 L 456.804688 246.1875 L 456.804688 246.195312 L 459.535156 252.359375 L 465.34375 265.464844 C 458.71875 266.164062 452.097656 266.785156 445.472656 267.300781 M 415.636719 182.308594 C 408.601562 163.191406 402.160156 146.199219 396.675781 132.023438 L 400.386719 117.707031 L 400.390625 117.710938 L 400.390625 117.726562 L 403.339844 124.414062 C 403.15625 124.332031 402.960938 124.261719 402.765625 124.195312 L 406.878906 133.445312 L 422.570312 168.882812 L 428.117188 181.414062 C 423.960938 181.757812 419.800781 182.058594 415.636719 182.308594 " fill-opacity="1" fill-rule="nonzero"/><path fill="#fb5032" d="M 453.050781 237.703125 C 447.078125 237.578125 441.125 237.371094 435.175781 237.085938 C 428.402344 217.496094 421.789062 199.074219 415.636719 182.308594 C 419.800781 182.058594 423.960938 181.757812 428.117188 181.414062 L 443.957031 217.183594 L 453.050781 237.703125 " fill-opacity="1" fill-rule="nonzero"/><path fill="#ea3434" d="M 458.363281 306.882812 C 455.679688 298.414062 452.980469 290.035156 450.269531 281.796875 C 448.929688 277.722656 447.597656 273.683594 446.265625 269.6875 C 446 268.886719 445.734375 268.09375 445.472656 267.300781 C 452.097656 266.785156 458.71875 266.164062 465.34375 265.464844 L 478.8125 295.832031 L 478.796875 295.84375 L 480.144531 298.871094 L 482.070312 303.234375 C 474.195312 304.574219 466.285156 305.792969 458.363281 306.882812 " fill-opacity="1" fill-rule="nonzero"/><path fill="#6d43b5" d="M 478.9375 375.542969 C 474.90625 361.234375 470.730469 346.992188 466.445312 332.945312 C 475.21875 331.140625 483.941406 329.167969 492.621094 327.058594 L 495.503906 333.5625 L 511.769531 370.289062 C 500.851562 372.261719 489.914062 374.019531 478.9375 375.542969 " fill-opacity="1" fill-rule="nonzero"/><path fill="#3a4ca8" d="M 506.304688 488.203125 C 501.324219 462.832031 495.203125 436.644531 488.363281 410.351562 C 501.359375 408.90625 514.304688 407.171875 527.234375 405.199219 L 530.414062 412.371094 L 549.425781 455.335938 L 562.097656 483.933594 C 543.5 485.863281 524.902344 487.277344 506.304688 488.203125 " fill-opacity="1" fill-rule="nonzero"/><path fill="#4ab7d8" d="M 518.269531 570.085938 C 516.855469 553.273438 514.558594 535.542969 511.539062 517.179688 C 532.492188 515.941406 553.441406 514.082031 574.371094 511.628906 L 582.335938 529.621094 L 590.636719 548.363281 L 596.609375 561.824219 L 597.765625 564.453125 C 571.246094 567.261719 544.738281 569.136719 518.269531 570.085938 " fill-opacity="1" fill-rule="nonzero"/><path fill="#81a82d" d="M 516.808594 646.277344 C 519.324219 631.3125 520.195312 614.351562 519.703125 595.886719 C 549.503906 595.082031 579.375 593.257812 609.257812 590.398438 L 613.941406 600.96875 L 627.613281 631.851562 L 627.707031 632.054688 C 590.902344 638.300781 553.914062 643.039062 516.808594 646.277344 " fill-opacity="1" fill-rule="nonzero"/><path fill="#f6db2b" d="M 448.882812 736.246094 C 472.53125 723.40625 491.988281 706.367188 504.570312 683.941406 C 506.074219 681.265625 507.453125 678.433594 508.707031 675.449219 C 552.417969 671.558594 595.941406 665.707031 639.152344 657.902344 L 644.078125 669.023438 L 656.992188 698.15625 L 663.203125 712.1875 C 592.382812 725.253906 520.761719 733.289062 448.882812 736.246094 " fill-opacity="1" fill-rule="nonzero"/><g clip-path="url(#3e68595f5e)"><path fill="#fb5032" d="M 384.753906 802.003906 C 326.855469 802.003906 268.917969 798.820312 211.199219 792.449219 L 211.121094 792.4375 C 210.730469 792.402344 210.339844 792.351562 209.960938 792.3125 C 183.75 786.664062 157.613281 779.652344 131.527344 771.230469 C 130.316406 770.828125 129.558594 769.707031 129.558594 768.507812 C 129.558594 768.183594 129.613281 767.851562 129.726562 767.53125 L 129.96875 766.875 C 130.140625 766.890625 130.332031 766.917969 130.507812 766.925781 C 151.164062 768.578125 197.273438 773.425781 250.804688 773.425781 C 286.40625 773.425781 325.289062 771.285156 362.160156 764.628906 C 365.363281 764.058594 368.535156 763.445312 371.714844 762.785156 C 375.789062 761.945312 379.839844 761.0625 383.847656 760.097656 C 480.535156 759.96875 577.066406 750.726562 672.15625 732.429688 L 680.511719 751.308594 C 680.617188 751.542969 680.699219 751.777344 680.730469 752.003906 L 680.730469 752.023438 C 680.753906 752.167969 680.765625 752.316406 680.765625 752.460938 C 680.769531 753.628906 680.046875 754.738281 678.859375 755.140625 C 642.894531 767.921875 607.042969 778.515625 571.269531 786.886719 C 564.039062 788.574219 556.808594 790.175781 549.570312 791.675781 C 547.058594 792.210938 544.542969 792.726562 542.019531 793.226562 C 538.980469 793.835938 535.921875 794.433594 532.882812 795.003906 C 532.757812 795.03125 532.628906 795.054688 532.503906 795.074219 L 532.492188 795.074219 L 532.480469 795.089844 C 483.375 799.695312 434.078125 802.003906 384.753906 802.003906 " fill-opacity="1" fill-rule="nonzero"/></g><path fill="#f8e33e" d="M 378.453125 59.222656 L 426.78125 14.183594 L 408.410156 74.738281 L 484.484375 119.199219 L 402.90625 108.015625 L 381.496094 190.5 L 369.542969 113.0625 L 302.890625 130.828125 L 354.433594 82.910156 L 294.855469 0 L 378.453125 59.222656 " fill-opacity="1" fill-rule="nonzero"/><path fill="#fcf15d" d="M 384.460938 143.917969 L 377.925781 101.574219 L 341.476562 111.285156 L 369.660156 85.078125 L 337.078125 39.742188 L 382.796875 72.128906 L 409.226562 47.5 L 399.175781 80.613281 L 440.78125 104.929688 L 396.167969 98.8125 L 384.460938 143.917969 " fill-opacity="1" fill-rule="nonzero"/></svg>