<svg xmlns="http://www.w3.org/2000/svg" xmlns:xlink="http://www.w3.org/1999/xlink" width="1080" zoomAndPan="magnify" viewBox="0 0 810 809.999993" height="1080" preserveAspectRatio="xMidYMid meet" version="1.0"><defs><g/><clipPath id="d98d7a4c85"><path d="M 405 0 C 181.324219 0 0 181.324219 0 405 C 0 628.675781 181.324219 810 405 810 C 628.675781 810 810 628.675781 810 405 C 810 181.324219 628.675781 0 405 0 Z M 405 0 " clip-rule="nonzero"/></clipPath></defs><g clip-path="url(#d98d7a4c85)"><rect x="-81" width="972" fill="#e00074" y="-80.999999" height="971.999992" fill-opacity="1"/></g><g fill="#c1ff72" fill-opacity="1"><g transform="translate(332.069393, 215.629249)"><g><path d="M 1.121094 -32.445312 C 3.574219 -12.671875 23.101562 -1.578125 47.308594 -4.585938 C 73.292969 -7.808594 90.914062 -27.628906 87.765625 -52.980469 C 81.664062 -102.160156 8.316406 -87.523438 4.460938 -118.578125 C 4.164062 -120.984375 4.972656 -123.789062 6.019531 -124.691406 C 27.3125 -127.335938 51.949219 -127.945312 74.871094 -108.140625 L 75.253906 -108.1875 L 71.605469 -137.59375 L 1.886719 -128.941406 C -1.125 -126.25 -3.234375 -121.484375 -2.589844 -116.285156 C 1.878906 -80.289062 65.1875 -82.480469 70.328125 -41.035156 C 72.3125 -25.0625 64.585938 -11.617188 46.585938 -9.386719 C 29.472656 -7.261719 20.246094 -18.34375 19.003906 -28.355469 C 17.667969 -39.132812 22.984375 -50.214844 34.644531 -51.664062 C 36.421875 -51.882812 38.226562 -51.851562 40.316406 -51.59375 C 40.636719 -54.210938 36.765625 -64.667969 21.808594 -62.8125 C 12.175781 -61.617188 -1.378906 -52.597656 1.121094 -32.445312 Z M 1.121094 -32.445312 "/></g></g></g><g fill="#c1ff72" fill-opacity="1"><g transform="translate(415.694901, 203.676077)"><g><path d="M 13.949219 -32.089844 C 8.226562 -10.878906 17.054688 5.925781 34.8125 10.714844 C 54.050781 15.902344 83.296875 2.625 91.515625 -27.832031 C 97.835938 -51.261719 88.285156 -65.878906 70.648438 -70.636719 C 51.289062 -75.859375 22.796875 -64.890625 13.949219 -32.089844 Z M 32.378906 -26.851562 C 40.128906 -55.585938 53.332031 -70.679688 66.894531 -67.019531 C 76.019531 -64.558594 78.527344 -52.765625 72.90625 -31.925781 C 64.855469 -2.082031 52.253906 10.789062 38.691406 7.128906 C 29.566406 4.667969 27.390625 -8.355469 32.378906 -26.851562 Z M 32.378906 -26.851562 "/></g></g></g><g fill="#c1ff72" fill-opacity="1"><g transform="translate(488.686337, 225.435148)"><g><path d="M 3.332031 1.890625 L 26.554688 15.054688 L 26.746094 14.722656 C 25.289062 0.976562 30.609375 -13.332031 38.484375 -27.222656 C 46.359375 -41.109375 55.902344 -53.023438 68.449219 -58.832031 L 68.636719 -59.167969 L 45.414062 -72.332031 L 45.226562 -72 C 46.679688 -58.253906 41.359375 -43.945312 33.484375 -30.054688 C 25.609375 -16.167969 16.066406 -4.253906 3.523438 1.554688 Z M 60.53125 -71.542969 C 67.53125 -67.574219 76.519531 -69.964844 80.554688 -77.078125 C 84.523438 -84.078125 82.019531 -93.132812 75.019531 -97.101562 C 67.910156 -101.132812 58.855469 -98.628906 54.886719 -91.628906 C 50.855469 -84.519531 53.417969 -75.574219 60.53125 -71.542969 Z M 60.53125 -71.542969 "/></g></g></g><g fill="#c1ff72" fill-opacity="1"><g transform="translate(512.792517, 235.804882)"><g><path d="M 22.660156 20.457031 L 22.914062 20.171875 C 24.476562 6.4375 32.773438 -6.375 43.472656 -18.226562 L 46.554688 -21.640625 C 54.941406 -30.929688 69.863281 -29.160156 80.671875 -19.402344 C 86.738281 -13.925781 90.316406 -5.878906 88.292969 0.554688 L 88.578125 0.8125 L 106.378906 -18.90625 C 104.136719 -22.140625 102.117188 -24.476562 98.894531 -27.386719 C 87.042969 -38.085938 69.632812 -39.007812 55.457031 -31.5 L 72.144531 -49.988281 L 60.019531 -60.761719 L 59.761719 -60.476562 C 58.203125 -46.742188 49.90625 -33.929688 39.207031 -22.078125 C 28.507812 -10.226562 16.605469 -0.667969 3.101562 2.285156 L 2.84375 2.566406 Z M 22.660156 20.457031 "/></g></g></g><g fill="#c1ff72" fill-opacity="1"><g transform="translate(557.815333, 273.464132)"><g><path d="M 21.578125 39.316406 C 26.039062 46.917969 33.46875 55.296875 41.101562 56.445312 L 56.085938 47.65625 L 55.890625 47.328125 C 43.8125 48.191406 31.351562 45.878906 25.015625 35.082031 C 18.8125 24.503906 26.75 13.039062 39.238281 3.785156 C 39.261719 8.367188 40.238281 13.566406 43.726562 19.515625 C 54.839844 38.464844 73.484375 40.710938 92.652344 29.46875 C 103.5625 23.070312 107.714844 15.007812 104.421875 9.386719 L 93.304688 -9.5625 C 83.03125 -27.078125 56.144531 -28.488281 37.085938 -17.308594 C 18.464844 -6.386719 7.621094 15.519531 21.578125 39.316406 Z M 44.113281 0.484375 C 45.214844 -0.164062 46.316406 -0.808594 47.417969 -1.453125 C 63.945312 -11.148438 85.816406 -11.980469 94.476562 2.78125 C 97.898438 8.621094 102.179688 14.40625 95.898438 18.085938 C 80.476562 27.132812 54.539062 20.28125 46.851562 7.171875 C 45.429688 4.746094 44.53125 2.460938 44.113281 0.484375 Z M 44.113281 0.484375 "/></g></g></g><g fill="#c1ff72" fill-opacity="1"><g transform="translate(591.948976, 327.872066)"><g><path d="M 8.179688 44.097656 C 10.035156 52.714844 14.464844 62.996094 21.355469 66.480469 L 38.339844 62.824219 L 38.257812 62.449219 C 26.515625 59.488281 15.40625 53.386719 12.773438 41.152344 C 10.191406 29.164062 21.320312 20.757812 36.078125 15.886719 C 34.664062 20.242188 33.964844 25.488281 35.414062 32.230469 C 40.035156 53.707031 57.035156 61.679688 78.761719 57.003906 C 91.125 54.34375 97.597656 47.988281 96.226562 41.621094 L 91.605469 20.140625 C 87.335938 0.289062 62.242188 -9.46875 40.640625 -4.824219 C 19.535156 -0.285156 2.378906 17.125 8.179688 44.097656 Z M 41.742188 14.277344 C 42.992188 14.007812 44.242188 13.738281 45.488281 13.46875 C 64.21875 9.441406 85.25 15.5 88.851562 32.230469 C 90.273438 38.851562 92.527344 45.679688 85.410156 47.210938 C 67.929688 50.972656 45.445312 36.34375 42.25 21.484375 C 41.65625 18.734375 41.523438 16.28125 41.742188 14.277344 Z M 41.742188 14.277344 "/></g></g></g><g fill="#c1ff72" fill-opacity="1"><g transform="translate(607.750177, 389.897966)"><g><path d="M 28.394531 39.835938 C 22.789062 53.714844 20.769531 66.59375 9.859375 65.320312 C 1.359375 64.328125 -2.070312 51.839844 -1.074219 43.339844 C -0.0546875 34.585938 12.289062 16.996094 32.585938 9.464844 L 32.632812 9.082031 L 7.636719 6.164062 C -2.066406 18.789062 -4.441406 27 -6.054688 40.828125 C -8.484375 61.636719 0.617188 76.199219 16.09375 78.007812 C 33.980469 80.097656 38.746094 65.738281 46.183594 49.375 C 52.054688 36.558594 57.773438 20.636719 69.570312 22.015625 C 74.519531 22.59375 78.640625 26.933594 78.179688 30.863281 C 76.386719 46.214844 67.972656 67.609375 45.871094 75.183594 L 45.8125 75.691406 L 76.640625 79.292969 L 82.359375 30.324219 C 83.292969 22.332031 74.519531 12.691406 62.988281 11.214844 C 51.710938 9.769531 37.964844 16.265625 28.394531 39.835938 Z M 28.394531 39.835938 "/></g></g></g><g fill="#c1ff72" fill-opacity="1"><g transform="translate(597.877443, 460.327012)"><g><path d="M -1.339844 3.589844 L -10.667969 28.601562 L -10.3125 28.734375 C 3.03125 25.125 18.003906 28.117188 32.960938 33.699219 C 47.921875 39.28125 61.191406 46.820312 68.910156 58.289062 L 69.269531 58.421875 L 78.601562 33.410156 L 78.242188 33.277344 C 64.898438 36.886719 49.929688 33.894531 34.96875 28.3125 C 20.011719 22.734375 6.738281 15.191406 -0.980469 3.722656 Z M 80.210938 48.464844 C 77.398438 56.003906 81.179688 64.503906 88.839844 67.359375 C 96.378906 70.171875 104.921875 66.269531 107.734375 58.730469 C 110.59375 51.070312 106.691406 42.527344 99.152344 39.714844 C 91.492188 36.859375 83.070312 40.804688 80.210938 48.464844 Z M 80.210938 48.464844 "/></g></g></g><g fill="#c1ff72" fill-opacity="1"><g transform="translate(589.029064, 486.778212)"><g/></g></g><g fill="#c1ff72" fill-opacity="1"><g transform="translate(578.445581, 519.34391)"><g><path d="M 25.859375 36.824219 C 8.898438 17.71875 -19.867188 17.636719 -40.023438 35.53125 C -68.390625 60.714844 -61.574219 87.628906 -44.785156 106.542969 C -35.457031 117.050781 -23.1875 120.675781 -9.800781 117.667969 L -6.492188 101.582031 C -24.101562 105.601562 -34.757812 102.253906 -46.039062 89.550781 C -53.753906 80.855469 -55.207031 65.75 -48.507812 53.484375 C -47.707031 59.773438 -43.902344 67.328125 -39.238281 72.582031 C -14.648438 100.28125 31.351562 90.53125 50.855469 112.5 C 54.671875 116.796875 49.925781 122.035156 47.632812 124.070312 L 42.859375 128.308594 C 28.246094 141.285156 11.835938 141.847656 -3.289062 135.972656 L -3.574219 136.226562 L 16.097656 158.386719 L 70.925781 109.710938 C 75.03125 106.066406 73.582031 103.082031 71.207031 100.410156 C 64.847656 93.246094 52.023438 91.308594 36.910156 89.867188 C 43.402344 73.511719 41.96875 54.972656 25.859375 36.824219 Z M -36.148438 67.789062 C -41.660156 61.582031 -44.5625 54.078125 -44.15625 47.226562 C -43.1875 46.199219 -42.222656 45.171875 -41.078125 44.152344 C -27.035156 31.6875 1.644531 34.75 20.554688 56.050781 C 29.710938 66.367188 34.964844 79.976562 32.316406 89.503906 C 8.1875 87.523438 -20.035156 85.9375 -36.148438 67.789062 Z M -36.148438 67.789062 "/></g></g></g><g fill="#c1ff72" fill-opacity="1"><g transform="translate(504.222838, 581.012699)"><g/></g></g><g fill="#c1ff72" fill-opacity="1"><g transform="translate(471.080747, 596.681265)"><g><path d="M 11.761719 99.097656 L -7.519531 1.484375 L -30.699219 6.0625 L -30.625 6.441406 C -17.910156 21.375 -5.460938 41.570312 0.507812 71.769531 L 2.410156 81.417969 C -7.359375 82.042969 -15.914062 77.617188 -22.1875 70.914062 L -22.5625 70.988281 L -26.695312 92.242188 L 3.378906 86.304688 L 5.011719 94.574219 C 8.375 111.613281 2.671875 119.640625 -7.226562 121.597656 C -14.371094 123.007812 -22.132812 121.285156 -28.859375 116.234375 L -29.234375 116.308594 L -25.496094 135.230469 C -20.5625 135.167969 -16.476562 134.75 -10.839844 133.636719 C 6.578125 130.199219 15.179688 116.390625 11.761719 99.097656 Z M 11.761719 99.097656 "/></g></g></g><g fill="#c1ff72" fill-opacity="1"><g transform="translate(427.228987, 607.681166)"><g><path d="M -30.457031 -2.039062 L -30.484375 -1.65625 C -23.207031 10.09375 -21.792969 25.296875 -22.859375 41.226562 L -23.167969 45.8125 C -24.003906 58.300781 -36.816406 66.148438 -51.347656 65.175781 C -59.503906 64.628906 -67.292969 60.523438 -69.6875 54.21875 L -70.070312 54.191406 L -71.84375 80.703125 C -68.082031 81.847656 -65.046875 82.4375 -60.714844 82.726562 C -44.785156 83.792969 -30.542969 73.738281 -24.054688 59.066406 L -25.71875 83.917969 L -9.523438 84.875 L -9.5 84.492188 C -16.777344 72.738281 -18.191406 57.539062 -17.125 41.609375 C -16.058594 25.679688 -12.628906 10.804688 -3.847656 0.125 L -3.824219 -0.257812 Z M -30.457031 -2.039062 "/></g></g></g><g fill="#c1ff72" fill-opacity="1"><g transform="translate(366.019681, 602.571262)"><g><path d="M -3.675781 -1.078125 L -29.292969 -8.597656 L -29.398438 -8.230469 C -24.84375 4.820312 -26.757812 19.96875 -31.253906 35.285156 C -35.75 50.605469 -42.324219 64.386719 -53.210938 72.902344 L -53.320312 73.273438 L -27.703125 80.789062 L -27.597656 80.421875 C -32.152344 67.371094 -30.238281 52.226562 -25.742188 36.90625 C -21.242188 21.585938 -14.671875 7.808594 -3.785156 -0.710938 Z M -42.601562 83.472656 C -50.324219 81.207031 -58.53125 85.585938 -60.832031 93.429688 C -63.097656 101.152344 -58.597656 109.394531 -50.875 111.660156 C -43.03125 113.960938 -34.789062 109.460938 -32.523438 101.738281 C -30.21875 93.894531 -34.757812 85.773438 -42.601562 83.472656 Z M -42.601562 83.472656 "/></g></g></g><g fill="#c1ff72" fill-opacity="1"><g transform="translate(340.394462, 598.635909)"><g><path d="M -38.351562 -23.253906 C -46.011719 -27.609375 -56.636719 -31.148438 -63.820312 -28.324219 L -72.402344 -13.222656 L -72.070312 -13.03125 C -62.042969 -19.820312 -50.089844 -24.050781 -39.207031 -17.867188 C -28.546875 -11.808594 -29.683594 2.085938 -35.875 16.34375 C -38.179688 12.390625 -41.628906 8.375 -47.625 4.96875 C -66.726562 -5.882812 -83.992188 1.492188 -94.972656 20.816406 C -101.21875 31.8125 -100.785156 40.875 -95.121094 44.089844 L -76.019531 54.941406 C -58.359375 64.972656 -34.371094 52.746094 -23.457031 33.535156 C -12.796875 14.765625 -14.363281 -9.628906 -38.351562 -23.253906 Z M -38.441406 21.640625 C -39.074219 22.753906 -39.707031 23.863281 -40.335938 24.972656 C -49.800781 41.632812 -68.324219 53.292969 -83.203125 44.835938 C -89.089844 41.492188 -95.6875 38.625 -92.089844 32.296875 C -83.257812 16.75 -57.375 9.714844 -44.15625 17.222656 C -41.714844 18.609375 -39.792969 20.140625 -38.441406 21.640625 Z M -38.441406 21.640625 "/></g></g></g><g fill="#c1ff72" fill-opacity="1"><g transform="translate(283.591232, 569.328052)"><g><path d="M -8.867188 -10.0625 L -17.683594 -2.292969 C -44.804688 21.601562 -73.164062 17.816406 -83.886719 5.644531 C -90.386719 -1.734375 -90.449219 -12.234375 -79.808594 -21.609375 C -66.777344 -33.089844 -51.449219 -37.914062 -32.375 -36.164062 L -32.085938 -36.417969 L -49.394531 -56.0625 L -86.378906 -23.652344 C -100.730469 -11.347656 -114.289062 1.28125 -103.988281 12.972656 C -92.671875 25.8125 -62.082031 25.757812 -44.464844 19.089844 C -57.066406 26.617188 -69.191406 33.722656 -84.082031 33.054688 L -84.367188 33.308594 L -69.085938 50.652344 L -5.066406 -5.75 Z M -8.867188 -10.0625 "/></g></g></g><g fill="#c1ff72" fill-opacity="1"><g transform="translate(235.636672, 518.854197)"><g><path d="M -37.230469 10.320312 C -19.605469 3.488281 -4.441406 -14.992188 -12.886719 -36.785156 C -17.042969 -47.503906 -25.5625 -55.707031 -28.472656 -63.210938 C -29.765625 -66.546875 -29.917969 -69.773438 -28.296875 -73.003906 L -147.390625 -26.84375 L -137.789062 -2.074219 L -137.433594 -2.210938 C -129.296875 -19.75 -113.503906 -32.71875 -96.199219 -40.386719 C -100.957031 -32.511719 -102.589844 -21.882812 -98.710938 -11.878906 C -89.433594 12.0625 -61.289062 19.644531 -37.230469 10.320312 Z M -31.164062 -11.484375 C -57.839844 -1.144531 -87.566406 -9.621094 -93.425781 -24.746094 C -97.441406 -35.109375 -89.457031 -43.136719 -80.644531 -46.550781 C -60.875 -54.214844 -26.914062 -60.253906 -17.265625 -35.363281 C -13.714844 -26.191406 -19.847656 -15.867188 -31.164062 -11.484375 Z M -31.164062 -11.484375 "/></g></g></g><g fill="#c1ff72" fill-opacity="1"><g transform="translate(207.556058, 451.440038)"><g><path d="M -33.582031 -35.578125 C -29.925781 -50.089844 -29.6875 -63.125 -18.707031 -63.355469 C -10.152344 -63.535156 -5.046875 -51.636719 -4.867188 -43.078125 C -4.679688 -34.269531 -14.5 -15.152344 -33.574219 -4.914062 L -33.566406 -4.53125 L -8.410156 -5.0625 C -0.523438 -18.898438 0.703125 -27.355469 0.410156 -41.273438 C -0.03125 -62.214844 -11.039062 -75.398438 -26.617188 -75.070312 C -44.625 -74.691406 -47.375 -59.816406 -52.507812 -42.589844 C -56.566406 -29.089844 -60.054688 -12.535156 -71.929688 -12.285156 C -76.910156 -12.179688 -81.585938 -15.914062 -81.671875 -19.875 C -81.996094 -35.324219 -76.585938 -57.667969 -55.730469 -68.199219 L -55.738281 -68.710938 L -86.769531 -68.058594 L -85.734375 -18.765625 C -85.566406 -10.722656 -75.554688 -2.371094 -63.929688 -2.488281 C -52.5625 -2.601562 -39.832031 -10.917969 -33.582031 -35.578125 Z M -33.582031 -35.578125 "/></g></g></g><g fill="#c1ff72" fill-opacity="1"><g transform="translate(207.075176, 381.08433)"><g/></g></g><g fill="#c1ff72" fill-opacity="1"><g transform="translate(214.037875, 345.414127)"><g><path d="M -31.828125 -24.921875 L -24.453125 -39.8125 L -36.3125 -51.546875 L -19.796875 -49.1875 L -12.40625 -64.0625 L -9.71875 -47.625 L 6.84375 -45.09375 L -7.9375 -37.453125 L -5.078125 -21.0625 L -17.109375 -32.75 Z M -31.828125 -24.921875 "/></g></g></g><g fill="#c1ff72" fill-opacity="1"><g transform="translate(235.391994, 299.651226)"><g><path d="M -24.609375 -32.078125 L -13.75 -44.640625 L -22.328125 -58.96875 L -6.90625 -52.5625 L 3.953125 -65.125 L 2.4375 -48.546875 L 17.859375 -41.984375 L 1.640625 -38.25 L 0.328125 -21.671875 L -8.421875 -35.984375 Z M -24.609375 -32.078125 "/></g></g></g><g fill="#c1ff72" fill-opacity="1"><g transform="translate(267.472072, 260.649798)"><g><path d="M -15.84375 -37.1875 L -2.203125 -46.65625 L -6.9375 -62.65625 L 6.40625 -52.625 L 20.046875 -62.09375 L 14.453125 -46.40625 L 27.75 -36.203125 L 11.109375 -36.640625 L 5.703125 -20.90625 L 0.8125 -36.9375 Z M -15.84375 -37.1875 "/></g></g></g><g fill="#c1ff72" fill-opacity="1"><g transform="translate(309.743712, 231.198615)"><g/></g></g></svg>