<?xml version="1.0" encoding="UTF-8"?><svg id="Layer_2" xmlns="http://www.w3.org/2000/svg" viewBox="0 0 242.89 33.4"><defs><style>.cls-1{fill:#c1ff72;}</style></defs><g id="Layer_1-2"><path class="cls-1" d="M0,20.33c0-1.23,.34-2.32,1.03-3.25,.68-.94,1.63-1.68,2.85-2.21,1.22-.53,2.6-.8,4.16-.8,.73,0,1.42,.06,2.07,.18s1.21,.29,1.68,.53v-.57c0-.84-.25-1.46-.76-1.87s-1.33-.61-2.46-.61c-1.04,0-2.01,.17-2.92,.51-.91,.34-1.86,.84-2.85,1.51L.85,9.56c1.25-.8,2.57-1.4,3.95-1.79s2.86-.58,4.45-.58c2.95,0,5.24,.65,6.85,1.95,1.62,1.3,2.43,3.23,2.43,5.79v3.53c0,.62,.09,1.05,.28,1.3,.19,.24,.52,.39,.99,.43v5.67c-.54,.12-1.06,.21-1.54,.27-.48,.06-.92,.09-1.29,.09-1.2,0-2.12-.22-2.75-.66-.63-.44-1.03-1.08-1.22-1.93l-.14-.67c-.83,1.06-1.78,1.87-2.87,2.43-1.09,.55-2.24,.83-3.47,.83s-2.34-.26-3.33-.77c-.99-.51-1.77-1.21-2.34-2.11-.57-.89-.85-1.9-.85-3.01ZM2.41,5.28V.32H7.93V5.28H2.41Zm8.5,15.45c.26-.18,.47-.37,.64-.59,.17-.21,.25-.43,.25-.65v-1.31c-.38-.13-.81-.25-1.29-.33-.48-.09-.92-.13-1.29-.13-.8,0-1.48,.19-2.04,.57s-.83,.86-.83,1.44c0,.31,.09,.6,.28,.85,.19,.26,.45,.46,.78,.6,.33,.15,.71,.22,1.13,.22,.4,0,.82-.06,1.26-.18,.44-.12,.81-.28,1.12-.49Zm-.35-15.45V.32h5.53V5.28h-5.53Z"/><path class="cls-1" d="M40.45,25.86h-6.73V15.63c0-.9-.21-1.55-.62-1.95-.41-.4-.93-.6-1.54-.6-.28,0-.63,.1-1.04,.3-.41,.2-.81,.49-1.19,.87-.38,.38-.67,.83-.89,1.34v10.27h-6.73V0h6.73V10.25c.66-1,1.53-1.76,2.6-2.28,1.07-.52,2.26-.78,3.56-.78s2.37,.21,3.15,.64c.78,.43,1.36,.98,1.74,1.65,.38,.67,.63,1.39,.76,2.16,.13,.77,.19,1.49,.19,2.16v12.05Z"/><path class="cls-1" d="M73.2,25.86h-6.73V15.63c0-.9-.18-1.55-.55-1.95-.37-.4-.81-.6-1.33-.6s-1.09,.24-1.7,.73c-.61,.48-1.06,1.11-1.35,1.87v10.19h-6.73V15.63c0-.9-.18-1.55-.55-1.95-.37-.4-.81-.6-1.33-.6s-1.09,.23-1.7,.7c-.61,.47-1.06,1.07-1.35,1.81v10.27h-6.73V7.47h6.06v2.78c.66-1,1.57-1.76,2.73-2.28,1.16-.52,2.53-.78,4.11-.78s2.69,.33,3.47,.97c.78,.65,1.3,1.38,1.56,2.19,.66-1,1.57-1.78,2.73-2.33,1.16-.56,2.46-.84,3.9-.84,1.23,0,2.21,.22,2.94,.66,.73,.44,1.28,1.01,1.65,1.71s.61,1.42,.73,2.18,.18,1.45,.18,2.07v12.05Z"/><path class="cls-1" d="M88.47,26.21c-1.35,0-2.52-.26-3.51-.78s-1.76-1.28-2.3-2.28v10.25h-6.73V7.47h5.84v2.82c.66-1,1.48-1.77,2.46-2.3,.98-.53,2.17-.8,3.56-.8,1.25,0,2.4,.23,3.44,.7,1.04,.46,1.95,1.13,2.73,1.99s1.38,1.86,1.81,3c.42,1.14,.64,2.39,.64,3.76,0,1.83-.34,3.47-1.03,4.91-.69,1.44-1.62,2.58-2.82,3.41-1.19,.84-2.56,1.25-4.09,1.25Zm-2.34-5.67c.5,0,.95-.1,1.36-.31,.41-.2,.77-.49,1.08-.85,.31-.36,.54-.78,.71-1.26,.17-.48,.25-.99,.25-1.53s-.09-1.08-.27-1.53c-.18-.45-.43-.84-.76-1.17s-.72-.58-1.17-.76c-.45-.18-.94-.27-1.49-.27-.31,0-.61,.04-.9,.12-.3,.08-.57,.19-.83,.33s-.51,.33-.76,.55-.48,.49-.69,.79v3.17c.21,.52,.5,.98,.87,1.4,.37,.42,.77,.74,1.22,.98,.45,.24,.91,.35,1.38,.35Z"/><path class="cls-1" d="M107.76,26.21c-1.65,0-3.12-.26-4.39-.77-1.28-.51-2.34-1.21-3.21-2.11-.86-.89-1.51-1.91-1.95-3.05-.44-1.14-.66-2.33-.66-3.59s.22-2.46,.66-3.61c.44-1.15,1.09-2.17,1.95-3.05,.86-.88,1.93-1.58,3.21-2.09,1.27-.51,2.74-.77,4.39-.77s3.15,.26,4.41,.77c1.26,.51,2.33,1.21,3.19,2.09,.86,.88,1.51,1.9,1.95,3.05,.44,1.15,.66,2.35,.66,3.61s-.22,2.45-.66,3.59c-.44,1.14-1.09,2.15-1.95,3.05-.86,.89-1.92,1.6-3.19,2.11-1.26,.51-2.73,.77-4.41,.77Zm-6.84-20.93V.32h5.53V5.28h-5.53Zm3.54,11.42c0,.79,.14,1.48,.43,2.06,.28,.58,.67,1.02,1.17,1.33,.5,.31,1.06,.46,1.7,.46s1.2-.15,1.7-.46c.5-.31,.89-.75,1.17-1.33,.28-.58,.43-1.26,.43-2.06s-.14-1.48-.43-2.06c-.28-.58-.67-1.02-1.17-1.33-.5-.31-1.06-.46-1.7-.46s-1.2,.15-1.7,.46c-.5,.31-.89,.75-1.17,1.33-.28,.58-.43,1.26-.43,2.06Zm4.6-11.42V.32h5.53V5.28h-5.53Z"/><path class="cls-1" d="M138.62,25.86h-6.73V15.63c0-.9-.21-1.55-.62-1.95-.41-.4-.93-.6-1.54-.6-.28,0-.63,.1-1.04,.3-.41,.2-.81,.49-1.19,.87-.38,.38-.67,.83-.89,1.34v10.27h-6.73V0h6.73V10.25c.66-1,1.53-1.76,2.6-2.28,1.07-.52,2.26-.78,3.56-.78s2.37,.21,3.15,.64c.78,.43,1.36,.98,1.74,1.65,.38,.67,.63,1.39,.76,2.16,.13,.77,.19,1.49,.19,2.16v12.05Z"/><path class="cls-1" d="M153.99,12.96c-1.3,0-2.48,.14-3.54,.42-1.06,.28-1.85,.76-2.37,1.42v11.05h-6.73V7.47h6.16v3.29c.66-1.25,1.49-2.21,2.48-2.89,.99-.67,2.04-1.01,3.15-1.01h.55c.11,0,.21,.01,.3,.04v6.06Z"/><path class="cls-1" d="M155.65,5.67V0h6.73V5.67h-6.73Zm0,20.19V7.23h6.73V25.86h-6.73Z"/><path class="cls-1" d="M172.44,26.21c-1.63,0-3.23-.27-4.8-.8-1.57-.53-2.9-1.3-3.98-2.32l2.3-4.14c1.16,.76,2.27,1.35,3.35,1.77,1.07,.42,2.05,.64,2.92,.64,.5,0,.86-.06,1.1-.17,.24-.11,.35-.31,.35-.58,0-.21-.08-.38-.25-.52-.17-.14-.43-.28-.8-.42-.37-.14-.83-.29-1.4-.45-1.46-.51-2.69-.99-3.67-1.43-.98-.44-1.71-.98-2.2-1.62-.48-.64-.73-1.49-.73-2.56,0-1.25,.32-2.36,.96-3.32,.64-.96,1.55-1.72,2.74-2.28s2.63-.83,4.3-.83c1.25,0,2.51,.19,3.77,.58s2.48,1.09,3.67,2.11l-2.55,4.11c-1.18-.73-2.18-1.25-2.99-1.56-.81-.31-1.54-.46-2.18-.46-.31,0-.57,.04-.8,.1-.22,.07-.4,.17-.51,.31-.12,.14-.18,.32-.18,.55s.08,.42,.25,.57c.16,.15,.42,.29,.78,.42,.35,.13,.8,.27,1.35,.43,1.61,.46,2.92,.93,3.93,1.4,1.02,.47,1.76,1.04,2.25,1.71,.48,.67,.73,1.54,.73,2.63,0,1.91-.69,3.41-2.07,4.49-1.38,1.08-3.26,1.62-5.65,1.62Z"/><path class="cls-1" d="M191.5,26.21c-1.65,0-3.11-.26-4.37-.77s-2.33-1.21-3.21-2.11c-.87-.89-1.54-1.91-1.98-3.05s-.67-2.33-.67-3.59c0-1.67,.4-3.23,1.19-4.68s1.95-2.62,3.47-3.5c1.52-.88,3.38-1.32,5.58-1.32s4.13,.47,5.67,1.42c1.53,.94,2.68,2.16,3.44,3.65l-6.55,1.98c-.31-.45-.68-.79-1.12-1.03-.44-.24-.93-.35-1.47-.35-.61,0-1.17,.15-1.67,.46-.5,.31-.89,.74-1.19,1.31-.3,.57-.44,1.26-.44,2.07s.15,1.48,.44,2.06c.29,.58,.69,1.02,1.19,1.33,.5,.31,1.05,.46,1.67,.46,.38,0,.72-.05,1.03-.16,.31-.11,.6-.27,.87-.48,.27-.21,.5-.46,.69-.74l6.55,1.98c-.5,.99-1.18,1.87-2.04,2.62-.86,.76-1.88,1.35-3.05,1.79s-2.51,.66-4.02,.66Z"/><path class="cls-1" d="M220.71,25.86h-6.73V15.63c0-.9-.21-1.55-.62-1.95-.41-.4-.93-.6-1.54-.6-.28,0-.63,.1-1.04,.3-.41,.2-.81,.49-1.19,.87-.38,.38-.67,.83-.89,1.34v10.27h-6.73V0h6.73V10.25c.66-1,1.53-1.76,2.6-2.28,1.07-.52,2.26-.78,3.56-.78s2.37,.21,3.15,.64c.78,.43,1.36,.98,1.74,1.65,.38,.67,.63,1.39,.76,2.16,.13,.77,.19,1.49,.19,2.16v12.05Z"/><path class="cls-1" d="M232.69,26.21c-1.63,0-3.08-.25-4.36-.75-1.27-.5-2.34-1.18-3.21-2.04s-1.52-1.85-1.97-2.97c-.45-1.12-.67-2.29-.67-3.52,0-1.76,.39-3.38,1.17-4.85s1.92-2.66,3.44-3.55c1.51-.89,3.38-1.34,5.6-1.34s4.08,.44,5.6,1.33c1.51,.88,2.66,2.05,3.44,3.49s1.17,3.01,1.17,4.71c0,.35-.02,.7-.05,1.06s-.08,.68-.12,.96h-13.07c.05,.63,.23,1.14,.55,1.53,.32,.39,.72,.68,1.2,.86,.48,.18,.99,.27,1.51,.27,.73,0,1.42-.17,2.07-.5,.65-.33,1.08-.79,1.29-1.38l5.7,1.63c-.5,.99-1.19,1.87-2.07,2.62-.89,.76-1.93,1.35-3.13,1.79-1.2,.44-2.56,.66-4.07,.66Zm-3.19-11.51h6.16c-.07-.58-.24-1.06-.51-1.46-.27-.4-.63-.71-1.06-.93-.44-.22-.94-.33-1.51-.33s-1.07,.11-1.51,.33c-.44,.22-.79,.53-1.06,.93-.27,.4-.44,.89-.51,1.46Z"/></g></svg>