<?xml version="1.0" encoding="UTF-8"?><svg id="Layer_2" xmlns="http://www.w3.org/2000/svg" viewBox="0 0 116.2 26.21"><defs><style>.cls-1{fill:#c1ff72;}</style></defs><g id="Layer_1-2"><path class="cls-1" d="M0,25.86V.71H17.25V6.73H6.91v4.18H15.34v5.6H6.91v9.35H0Z"/><path class="cls-1" d="M30,12.96c-1.3,0-2.48,.14-3.54,.42-1.06,.28-1.85,.76-2.37,1.42v11.05h-6.73V7.47h6.16v3.29c.66-1.25,1.49-2.21,2.48-2.89,.99-.67,2.04-1.01,3.15-1.01h.55c.11,0,.21,.01,.3,.04v6.06Z"/><path class="cls-1" d="M39.73,26.21c-1.63,0-3.08-.25-4.36-.75-1.27-.5-2.34-1.18-3.21-2.04s-1.52-1.85-1.97-2.97c-.45-1.12-.67-2.29-.67-3.52,0-1.76,.39-3.38,1.17-4.85s1.92-2.66,3.44-3.55c1.51-.89,3.38-1.34,5.6-1.34s4.08,.44,5.6,1.33c1.51,.88,2.66,2.05,3.44,3.49s1.17,3.01,1.17,4.71c0,.35-.02,.7-.05,1.06s-.08,.68-.12,.96h-13.07c.05,.63,.23,1.14,.55,1.53,.32,.39,.72,.68,1.2,.86,.48,.18,.99,.27,1.51,.27,.73,0,1.42-.17,2.07-.5,.65-.33,1.08-.79,1.29-1.38l5.7,1.63c-.5,.99-1.19,1.87-2.07,2.62-.89,.76-1.93,1.35-3.13,1.79-1.2,.44-2.56,.66-4.07,.66Zm-3.19-11.51h6.16c-.07-.58-.24-1.06-.51-1.46-.27-.4-.63-.71-1.06-.93-.44-.22-.94-.33-1.51-.33s-1.07,.11-1.51,.33c-.44,.22-.79,.53-1.06,.93-.27,.4-.44,.89-.51,1.46Z"/><path class="cls-1" d="M51.54,19.57V7.47h6.73v10.53c0,.79,.18,1.41,.55,1.86,.37,.45,.87,.68,1.51,.68,.35,0,.71-.04,1.06-.13,.35-.09,.71-.27,1.08-.54,.37-.27,.73-.65,1.08-1.14V7.47h6.73v10.98c0,.62,.09,1.06,.28,1.3,.19,.24,.52,.39,.99,.43v5.67c-.59,.12-1.12,.21-1.59,.27-.47,.06-.89,.09-1.24,.09-1.13,0-2.03-.21-2.69-.63-.66-.42-1.09-1.06-1.28-1.92l-.14-.66c-.87,1.14-1.92,1.96-3.13,2.46s-2.59,.75-4.13,.75c-1.87,0-3.3-.57-4.3-1.71-1-1.14-1.51-2.79-1.51-4.93Z"/><path class="cls-1" d="M72.81,16.67c0-1.81,.35-3.43,1.04-4.86,.7-1.43,1.66-2.55,2.89-3.38,1.23-.83,2.63-1.24,4.21-1.24,1.2,0,2.31,.28,3.33,.83,1.02,.56,1.78,1.32,2.3,2.29V0h6.73V18.42c0,.64,.09,1.08,.28,1.33,.19,.25,.52,.4,.99,.44v5.67c-1.16,.24-2.1,.35-2.83,.35-1.13,0-2.03-.21-2.69-.64s-1.09-1.07-1.27-1.95l-.14-.67c-.64,1.13-1.5,1.96-2.59,2.48-1.09,.52-2.24,.78-3.47,.78s-2.45-.23-3.52-.7c-1.07-.46-2.01-1.12-2.8-1.97-.79-.85-1.4-1.86-1.82-3.03-.42-1.17-.64-2.46-.64-3.85Zm13.81,2.04v-3.2c-.21-.52-.5-.98-.87-1.38-.37-.4-.77-.71-1.22-.93-.45-.23-.91-.34-1.38-.34-.5,0-.95,.1-1.36,.31-.41,.21-.77,.49-1.08,.85-.31,.36-.54,.78-.71,1.26-.17,.48-.25,.99-.25,1.53s.09,1.08,.27,1.53c.18,.45,.43,.84,.76,1.17,.33,.33,.72,.58,1.17,.76,.45,.18,.94,.27,1.49,.27,.33,0,.64-.04,.92-.12,.28-.08,.55-.19,.81-.34,.26-.15,.51-.34,.76-.58,.25-.24,.48-.5,.69-.8Z"/><path class="cls-1" d="M105.99,26.21c-1.63,0-3.08-.25-4.36-.75-1.27-.5-2.34-1.18-3.21-2.04s-1.52-1.85-1.97-2.97c-.45-1.12-.67-2.29-.67-3.52,0-1.76,.39-3.38,1.17-4.85s1.92-2.66,3.44-3.55c1.51-.89,3.38-1.34,5.6-1.34s4.08,.44,5.6,1.33c1.51,.88,2.66,2.05,3.44,3.49s1.17,3.01,1.17,4.71c0,.35-.02,.7-.05,1.06s-.08,.68-.12,.96h-13.07c.05,.63,.23,1.14,.55,1.53,.32,.39,.72,.68,1.2,.86,.48,.18,.99,.27,1.51,.27,.73,0,1.42-.17,2.07-.5,.65-.33,1.08-.79,1.29-1.38l5.7,1.63c-.5,.99-1.19,1.87-2.07,2.62-.89,.76-1.93,1.35-3.13,1.79-1.2,.44-2.56,.66-4.07,.66Zm-3.19-11.51h6.16c-.07-.58-.24-1.06-.51-1.46-.27-.4-.63-.71-1.06-.93-.44-.22-.94-.33-1.51-.33s-1.07,.11-1.51,.33c-.44,.22-.79,.53-1.06,.93-.27,.4-.44,.89-.51,1.46Z"/></g></svg>