<?xml version="1.0" encoding="UTF-8"?><svg id="Layer_2" xmlns="http://www.w3.org/2000/svg" viewBox="0 0 93.23 26.21"><defs><style>.cls-1{fill:#c1ff72;}</style></defs><g id="Layer_1-2"><g><path class="cls-1" d="M1.45,18.84c.14,.09,.59,.3,1.35,.6,.76,.31,1.64,.46,2.66,.46,.73,0,1.32-.12,1.77-.37,.45-.25,.78-.62,1.01-1.14,.22-.51,.38-1.19,.46-2.01,.08-.83,.12-1.84,.12-3.03V.71h6.91V13.39c0,1.9-.11,3.62-.34,5.16-.22,1.55-.68,2.88-1.36,4-.69,1.12-1.71,1.98-3.08,2.58-1.37,.6-3.2,.9-5.49,.9-1.09,0-2.08-.13-2.98-.39-.9-.26-1.72-.65-2.48-1.17l1.45-5.63Z"/><path class="cls-1" d="M17.48,20.33c0-1.23,.34-2.31,1.03-3.25,.68-.94,1.63-1.68,2.85-2.21,1.22-.53,2.6-.8,4.16-.8,.73,0,1.42,.06,2.07,.18,.65,.12,1.21,.3,1.68,.53v-.57c0-.84-.25-1.46-.76-1.87-.51-.41-1.33-.61-2.46-.61-1.04,0-2.01,.17-2.92,.51-.91,.34-1.86,.84-2.85,1.51l-1.95-4.18c1.25-.8,2.57-1.4,3.95-1.79s2.86-.58,4.45-.58c2.95,0,5.24,.65,6.85,1.95,1.62,1.3,2.43,3.23,2.43,5.79v3.53c0,.62,.09,1.05,.28,1.3,.19,.24,.52,.39,.99,.43v5.67c-.54,.12-1.06,.21-1.54,.27-.48,.06-.92,.09-1.29,.09-1.2,0-2.12-.22-2.75-.66-.63-.44-1.03-1.08-1.22-1.93l-.14-.67c-.83,1.06-1.78,1.87-2.87,2.43-1.09,.55-2.24,.83-3.47,.83s-2.34-.26-3.33-.77c-.99-.51-1.77-1.21-2.34-2.11-.57-.89-.85-1.9-.85-3.01Zm10.91,.4c.26-.18,.47-.37,.64-.59,.17-.21,.25-.43,.25-.65v-1.31c-.38-.13-.81-.25-1.29-.33-.48-.09-.92-.13-1.29-.13-.8,0-1.48,.19-2.04,.57-.55,.38-.83,.86-.83,1.44,0,.31,.09,.6,.28,.85,.19,.26,.45,.46,.78,.6,.33,.15,.71,.22,1.13,.22,.4,0,.82-.06,1.26-.18,.44-.12,.81-.28,1.12-.49Z"/><path class="cls-1" d="M57.92,25.86h-6.73V15.63c0-.9-.21-1.55-.62-1.95-.41-.4-.93-.6-1.54-.6-.28,0-.63,.1-1.04,.3-.41,.2-.81,.49-1.19,.87-.38,.38-.67,.83-.89,1.34v10.27h-6.73V0h6.73V10.25c.66-1,1.53-1.76,2.6-2.28,1.07-.52,2.26-.78,3.56-.78s2.37,.21,3.15,.64c.78,.43,1.36,.98,1.74,1.65,.38,.67,.63,1.39,.76,2.16,.13,.77,.19,1.49,.19,2.16v12.05Z"/><path class="cls-1" d="M73.29,12.96c-1.3,0-2.48,.14-3.54,.42-1.06,.28-1.85,.76-2.37,1.42v11.05h-6.73V7.47h6.16v3.29c.66-1.25,1.49-2.21,2.48-2.89,.99-.67,2.04-1.01,3.15-1.01h.55c.11,0,.21,.01,.3,.04v6.06Z"/><path class="cls-1" d="M83.03,26.21c-1.63,0-3.08-.25-4.36-.75-1.27-.5-2.34-1.18-3.21-2.04s-1.52-1.85-1.97-2.97c-.45-1.12-.67-2.29-.67-3.52,0-1.76,.39-3.38,1.17-4.85s1.92-2.66,3.44-3.55c1.51-.89,3.38-1.34,5.6-1.34s4.08,.44,5.6,1.33c1.51,.88,2.66,2.05,3.44,3.49s1.17,3.01,1.17,4.71c0,.35-.02,.7-.05,1.06-.04,.36-.08,.68-.12,.96h-13.07c.05,.63,.23,1.14,.55,1.53,.32,.39,.72,.68,1.2,.86,.48,.18,.99,.27,1.51,.27,.73,0,1.42-.17,2.07-.5s1.08-.79,1.29-1.38l5.7,1.63c-.5,.99-1.19,1.87-2.07,2.62-.89,.76-1.93,1.35-3.13,1.79-1.2,.44-2.56,.66-4.07,.66Zm-3.19-11.51h6.16c-.07-.58-.24-1.06-.51-1.46-.27-.4-.63-.71-1.06-.93-.44-.22-.94-.33-1.51-.33s-1.07,.11-1.51,.33c-.44,.22-.79,.53-1.06,.93-.27,.4-.44,.89-.51,1.46Z"/></g></g></svg>