<?xml version="1.0" encoding="UTF-8"?><svg id="Layer_2" xmlns="http://www.w3.org/2000/svg" viewBox="0 0 208.56 67.02"><defs><style>.cls-1{fill:#c1ff72;}.cls-2{fill:#e0ffc4;}.cls-3{fill:none;stroke:#c1ff72;stroke-miterlimit:10;stroke-width:.75px;}.cls-4{opacity:.62;}</style></defs><g id="Layer_1-2"><g><path class="cls-2" d="M0,39.8V2.7H18.18c6.31,0,13.09,3.04,13.09,12.76s-7.83,12.76-13.84,12.76c-2.11,0-3.71-.37-4.97-.96v12.54H0Zm12.46-13.61h.82c4.45,0,5.16-7.23,5.16-11.09s-.71-11.09-5.16-11.09h-.82V26.19Z"/><path class="cls-2" d="M44.92,2.7h17.47V39.8h-13.35V21.25h-9.35c2.78,5.34,6.6,10.87,6.6,15.5,0,1.04-.15,2.08-.56,3.04h-12.8V15.28c0-5.27,2.56-12.57,11.98-12.57Zm-5.86,17.25h9.98V4.26h-5.27c-5.97,0-6.97,5.42-6.97,7.9s.93,5.08,2.26,7.79Z"/><path class="cls-2" d="M64.58,39.8V2.7h20.59c5.27,0,10.46,3.38,10.46,8.68,0,6.08-4.27,9.5-9.24,9.5-3.3,0-9.13-1.48-11.24-3.49,6.94,6.71,20.77,6.94,20.77,19.1,0,1.11-.04,2.04-.37,3.3h-13.84c4.19-9.42-8.9-22.78-13.5-29.01,0,2.86,8.83,9.79,8.83,23.04v5.97h-12.46Zm1.67-35.5c.67,3.89,9.2,13.5,14.54,13.5,2.11,0,3.49-1.74,3.49-3.97,0-6.45-6.08-9.53-12.76-9.53h-5.27Z"/><path class="cls-2" d="M97.22,26.41V2.7h30.34V26.41h-.93c0-13.32-8.01-21.18-13.39-22.55,0,13.09,5.97,30.86,9.94,35.94h-21.4c3.97-5.08,9.94-22.85,9.72-35.94-5.34,1.37-13.35,9.24-13.35,22.55h-.93Z"/><path class="cls-2" d="M141.18,2.7l11.09,20.4c.52-1.04,1.22-3.19,1.22-4.9,0-6.34-3.6-9.9-3.6-13.39,0-1.04,.63-2.11,1.56-2.11h13.39l-11.83,22.07-.04,15.02h-12.87l.04-15.02-11.83-22.07h12.87Z"/><path class="cls-2" d="M165.95,9.57c0-4.6,3.23-7.6,6.57-7.6s6.42,3,6.42,7.6c0,4.93-3.23,10.57-5.56,15.36-.3,.59-.59,.93-.93,.93-.3,0-.63-.33-.93-.93-2.37-4.86-5.56-10.42-5.56-15.36Zm.78,25.22c0-3.45,2.3-5.75,5.75-5.75s5.71,2.3,5.71,5.75-2.3,5.75-5.71,5.75-5.75-2.3-5.75-5.75Z"/><path class="cls-2" d="M181.16,9.57c0-4.6,3.23-7.6,6.57-7.6s6.42,3,6.42,7.6c0,4.93-3.23,10.57-5.56,15.36-.3,.59-.59,.93-.93,.93-.3,0-.63-.33-.93-.93-2.37-4.86-5.56-10.42-5.56-15.36Zm.78,25.22c0-3.45,2.3-5.75,5.75-5.75s5.71,2.3,5.71,5.75-2.3,5.75-5.71,5.75-5.75-2.3-5.75-5.75Z"/></g><g class="cls-4"><g><path class="cls-1" d="M14.42,66.28V29.18h18.18c6.31,0,13.09,3.04,13.09,12.76s-7.83,12.76-13.84,12.76c-2.11,0-3.71-.37-4.97-.96v12.54H14.42Zm12.46-13.61h.82c4.45,0,5.16-7.23,5.16-11.09s-.71-11.09-5.16-11.09h-.82v22.18Z"/><path class="cls-1" d="M59.34,29.18h17.47v37.09h-13.35v-18.55h-9.35c2.78,5.34,6.6,10.87,6.6,15.5,0,1.04-.15,2.08-.56,3.04h-12.8v-24.52c0-5.27,2.56-12.57,11.98-12.57Zm-5.86,17.25h9.98v-15.69h-5.27c-5.97,0-6.97,5.42-6.97,7.9s.93,5.08,2.26,7.79Z"/><path class="cls-1" d="M79,66.28V29.18h20.59c5.27,0,10.46,3.38,10.46,8.68,0,6.08-4.27,9.5-9.24,9.5-3.3,0-9.13-1.48-11.24-3.49,6.94,6.71,20.77,6.94,20.77,19.1,0,1.11-.04,2.04-.37,3.3h-13.84c4.19-9.42-8.9-22.78-13.5-29.01,0,2.86,8.83,9.79,8.83,23.04v5.97h-12.46Zm1.67-35.5c.67,3.89,9.2,13.5,14.54,13.5,2.11,0,3.49-1.74,3.49-3.97,0-6.45-6.08-9.53-12.76-9.53h-5.27Z"/><path class="cls-1" d="M111.64,52.88V29.18h30.34v23.7h-.93c0-13.32-8.01-21.18-13.39-22.55,0,13.09,5.97,30.86,9.94,35.94h-21.4c3.97-5.08,9.94-22.85,9.72-35.94-5.34,1.37-13.35,9.24-13.35,22.55h-.93Z"/><path class="cls-1" d="M155.6,29.18l11.09,20.4c.52-1.04,1.22-3.19,1.22-4.9,0-6.34-3.6-9.9-3.6-13.39,0-1.04,.63-2.11,1.56-2.11h13.39l-11.83,22.07-.04,15.02h-12.87l.04-15.02-11.83-22.07h12.87Z"/><path class="cls-1" d="M180.37,36.04c0-4.6,3.23-7.6,6.57-7.6s6.42,3,6.42,7.6c0,4.93-3.23,10.57-5.56,15.36-.3,.59-.59,.93-.93,.93-.3,0-.63-.33-.93-.93-2.37-4.86-5.56-10.42-5.56-15.36Zm.78,25.22c0-3.45,2.3-5.75,5.75-5.75s5.71,2.3,5.71,5.75-2.3,5.75-5.71,5.75-5.75-2.3-5.75-5.75Z"/><path class="cls-1" d="M195.58,36.04c0-4.6,3.23-7.6,6.57-7.6s6.42,3,6.42,7.6c0,4.93-3.23,10.57-5.56,15.36-.3,.59-.59,.93-.93,.93-.3,0-.63-.33-.93-.93-2.37-4.86-5.56-10.42-5.56-15.36Zm.78,25.22c0-3.45,2.3-5.75,5.75-5.75s5.71,2.3,5.71,5.75-2.3,5.75-5.71,5.75-5.75-2.3-5.75-5.75Z"/></g></g><g><path class="cls-3" d="M1.12,38.21V1.12H19.29c6.31,0,13.09,3.04,13.09,12.76s-7.83,12.76-13.84,12.76c-2.11,0-3.71-.37-4.97-.96v12.54H1.12Zm12.46-13.61h.82c4.45,0,5.16-7.23,5.16-11.09s-.71-11.09-5.16-11.09h-.82V24.6Z"/><path class="cls-3" d="M46.04,1.12h17.47V38.21h-13.35V19.66h-9.35c2.78,5.34,6.6,10.87,6.6,15.5,0,1.04-.15,2.08-.56,3.04h-12.8V13.69c0-5.27,2.56-12.57,11.98-12.57Zm-5.86,17.25h9.98V2.67h-5.27c-5.97,0-6.97,5.42-6.97,7.9s.93,5.08,2.26,7.79Z"/><path class="cls-3" d="M65.7,38.21V1.12h20.59c5.27,0,10.46,3.38,10.46,8.68,0,6.08-4.27,9.5-9.24,9.5-3.3,0-9.13-1.48-11.24-3.49,6.94,6.71,20.77,6.94,20.77,19.1,0,1.11-.04,2.04-.37,3.3h-13.84c4.19-9.42-8.9-22.78-13.5-29.01,0,2.86,8.83,9.79,8.83,23.04v5.97h-12.46Zm1.67-35.5c.67,3.89,9.2,13.5,14.54,13.5,2.11,0,3.49-1.74,3.49-3.97,0-6.45-6.08-9.53-12.76-9.53h-5.27Z"/><path class="cls-3" d="M98.34,24.82V1.12h30.34V24.82h-.93c0-13.32-8.01-21.18-13.39-22.55,0,13.09,5.97,30.86,9.94,35.94h-21.4c3.97-5.08,9.94-22.85,9.72-35.94-5.34,1.37-13.35,9.24-13.35,22.55h-.93Z"/><path class="cls-3" d="M142.29,1.12l11.09,20.4c.52-1.04,1.22-3.19,1.22-4.9,0-6.34-3.6-9.9-3.6-13.39,0-1.04,.63-2.11,1.56-2.11h13.39l-11.83,22.07-.04,15.02h-12.87l.04-15.02L129.42,1.12h12.87Z"/><path class="cls-3" d="M167.07,7.98c0-4.6,3.23-7.6,6.57-7.6s6.42,3,6.42,7.6c0,4.93-3.23,10.57-5.56,15.36-.3,.59-.59,.93-.93,.93-.3,0-.63-.33-.93-.93-2.37-4.86-5.56-10.42-5.56-15.36Zm.78,25.22c0-3.45,2.3-5.75,5.75-5.75s5.71,2.3,5.71,5.75-2.3,5.75-5.71,5.75-5.75-2.3-5.75-5.75Z"/><path class="cls-3" d="M182.28,7.98c0-4.6,3.23-7.6,6.57-7.6s6.42,3,6.42,7.6c0,4.93-3.23,10.57-5.56,15.36-.3,.59-.59,.93-.93,.93-.3,0-.63-.33-.93-.93-2.37-4.86-5.56-10.42-5.56-15.36Zm.78,25.22c0-3.45,2.3-5.75,5.75-5.75s5.71,2.3,5.71,5.75-2.3,5.75-5.71,5.75-5.75-2.3-5.75-5.75Z"/></g><g><path class="cls-3" d="M13.31,65.11V28.01H31.48c6.31,0,13.09,3.04,13.09,12.76s-7.83,12.76-13.84,12.76c-2.11,0-3.71-.37-4.97-.96v12.54H13.31Zm12.46-13.61h.82c4.45,0,5.16-7.23,5.16-11.09s-.71-11.09-5.16-11.09h-.82v22.18Z"/><path class="cls-3" d="M58.23,28.01h17.47v37.09h-13.35v-18.55h-9.35c2.78,5.34,6.6,10.87,6.6,15.5,0,1.04-.15,2.08-.56,3.04h-12.8v-24.52c0-5.27,2.56-12.57,11.98-12.57Zm-5.86,17.25h9.98v-15.69h-5.27c-5.97,0-6.97,5.42-6.97,7.9s.93,5.08,2.26,7.79Z"/><path class="cls-3" d="M77.88,65.11V28.01h20.59c5.27,0,10.46,3.38,10.46,8.68,0,6.08-4.27,9.5-9.24,9.5-3.3,0-9.13-1.48-11.24-3.49,6.94,6.71,20.77,6.94,20.77,19.1,0,1.11-.04,2.04-.37,3.3h-13.84c4.19-9.42-8.9-22.78-13.5-29.01,0,2.86,8.83,9.79,8.83,23.04v5.97h-12.46Zm1.67-35.5c.67,3.89,9.2,13.5,14.54,13.5,2.11,0,3.49-1.74,3.49-3.97,0-6.45-6.08-9.53-12.76-9.53h-5.27Z"/><path class="cls-3" d="M110.53,51.72V28.01h30.34v23.7h-.93c0-13.32-8.01-21.18-13.39-22.55,0,13.09,5.97,30.86,9.94,35.94h-21.4c3.97-5.08,9.94-22.85,9.72-35.94-5.34,1.37-13.35,9.24-13.35,22.55h-.93Z"/><path class="cls-3" d="M154.48,28.01l11.09,20.4c.52-1.04,1.22-3.19,1.22-4.9,0-6.34-3.6-9.9-3.6-13.39,0-1.04,.63-2.11,1.56-2.11h13.39l-11.83,22.07-.04,15.02h-12.87l.04-15.02-11.83-22.07h12.87Z"/><path class="cls-3" d="M179.26,34.88c0-4.6,3.23-7.6,6.57-7.6s6.42,3,6.42,7.6c0,4.93-3.23,10.57-5.56,15.36-.3,.59-.59,.93-.93,.93-.3,0-.63-.33-.93-.93-2.37-4.86-5.56-10.42-5.56-15.36Zm.78,25.22c0-3.45,2.3-5.75,5.75-5.75s5.71,2.3,5.71,5.75-2.3,5.75-5.71,5.75-5.75-2.3-5.75-5.75Z"/><path class="cls-3" d="M194.47,34.88c0-4.6,3.23-7.6,6.57-7.6s6.42,3,6.42,7.6c0,4.93-3.23,10.57-5.56,15.36-.3,.59-.59,.93-.93,.93-.3,0-.63-.33-.93-.93-2.37-4.86-5.56-10.42-5.56-15.36Zm.78,25.22c0-3.45,2.3-5.75,5.75-5.75s5.71,2.3,5.71,5.75-2.3,5.75-5.71,5.75-5.75-2.3-5.75-5.75Z"/></g></g></svg>